<?xml version="1.0" standalone="no"?>
<!DOCTYPE svg PUBLIC "-//W3C//DTD SVG 20010904//EN"
 "http://www.w3.org/TR/2001/REC-SVG-20010904/DTD/svg10.dtd">
<svg version="1.0" xmlns="http://www.w3.org/2000/svg"
 width="300.000000pt" height="169.000000pt" viewBox="0 0 300.000000 169.000000"
 preserveAspectRatio="xMidYMid meet">
<metadata>
Created by potrace 1.10, written by Peter Selinger 2001-2011
</metadata>
<g transform="translate(0.000000,169.000000) scale(0.100000,-0.100000)"
fill="#000000" stroke="none">
<path d="M1905 1580 c-20 -8 -20 -8 0 -15 11 -4 47 -20 80 -35 33 -15 70 -31
82 -35 13 -3 40 -24 62 -45 36 -35 41 -38 53 -23 10 13 10 15 0 9 -15 -9 -55
31 -46 46 3 4 2 8 -3 7 -4 -1 -38 12 -75 29 -37 18 -72 32 -78 32 -6 0 -8 5
-5 10 4 7 14 6 28 -2 12 -7 24 -13 27 -13 3 0 15 -6 26 -13 12 -6 24 -8 28 -5
3 3 6 1 6 -6 0 -7 5 -9 10 -6 6 3 10 2 10 -4 0 -5 10 -11 23 -13 12 -2 21 -9
20 -15 -3 -16 18 -30 57 -37 l35 -5 -37 16 c-21 8 -38 20 -38 26 0 5 7 4 15
-3 8 -7 15 -9 15 -6 0 4 12 -1 28 -12 15 -10 40 -22 56 -26 23 -6 27 -9 15
-17 -10 -7 -8 -8 10 -7 13 2 25 -3 27 -10 1 -7 0 -8 -3 -2 -2 5 -9 10 -14 10
-6 0 -7 -5 -3 -11 3 -6 -9 -3 -27 7 -39 20 -79 30 -64 15 6 -5 64 -33 130 -63
66 -29 162 -81 213 -116 94 -62 112 -71 112 -51 0 5 5 7 10 4 6 -4 8 -10 5
-15 -3 -5 5 -14 17 -21 20 -10 22 -10 13 2 -5 8 -2 6 8 -4 9 -11 17 -16 17
-11 0 4 5 3 12 -4 7 -7 20 -12 29 -12 9 0 22 -7 29 -15 7 -8 17 -12 23 -8 5 3
7 1 3 -5 -3 -6 6 -15 21 -21 l28 -11 -27 5 c-15 3 -30 1 -33 -5 -3 -5 -11 -10
-16 -10 -6 0 -8 4 -5 8 2 4 -7 9 -22 9 -23 2 -21 -1 18 -22 53 -28 66 -30 86
-10 21 21 4 49 -43 69 -21 9 -74 41 -117 71 -77 53 -104 63 -75 29 8 -10 -14
0 -49 22 -34 21 -58 40 -52 42 5 2 25 -9 45 -23 28 -22 35 -24 35 -11 0 9 -6
16 -12 16 -7 0 -24 9 -38 20 -14 11 -33 20 -43 20 -10 0 -16 4 -13 9 11 17
-158 101 -172 86 -3 -2 3 -7 12 -11 9 -3 16 -11 16 -17 0 -5 -9 -2 -20 8 -11
10 -17 21 -15 26 5 7 -99 72 -120 75 -6 1 -31 11 -55 22 -77 35 -229 92 -242
91 -7 0 -22 -4 -33 -9z m552 -231 c19 -12 32 -23 30 -25 -5 -5 -65 25 -72 37
-10 15 5 11 42 -12z"/>
<path d="M1225 1561 c-11 -5 -26 -6 -32 -4 -7 3 -13 0 -13 -7 0 -6 5 -8 10 -5
6 3 10 2 10 -3 0 -14 -68 -42 -86 -35 -10 3 -15 2 -12 -3 3 -5 -8 -10 -24 -10
l-31 -1 24 13 c13 7 20 13 16 14 -19 0 -47 -22 -41 -32 5 -8 1 -9 -10 -5 -9 4
-15 3 -12 -2 3 -5 -1 -12 -10 -15 -8 -3 -12 -11 -8 -17 5 -8 3 -9 -7 -3 -24
15 -69 11 -86 -8 -8 -10 -20 -15 -24 -12 -5 3 -9 0 -9 -6 0 -6 -4 -8 -10 -5
-5 3 -10 1 -10 -5 0 -6 -4 -9 -9 -6 -5 3 -14 -1 -21 -9 -10 -12 -91 -58 -260
-146 -25 -13 -47 -27 -50 -30 -3 -3 -21 -14 -40 -24 -19 -10 -38 -23 -42 -29
-4 -6 -12 -11 -18 -11 -6 0 -15 -7 -20 -15 -5 -8 -10 -10 -10 -5 0 6 -7 -1
-16 -15 -15 -25 -15 -25 -8 -1 10 37 -13 16 -26 -24 -12 -36 -1 -75 22 -75 6
0 43 20 82 44 93 58 201 111 285 141 38 14 71 25 75 25 11 0 6 -21 -19 -76
-14 -30 -25 -58 -25 -62 0 -5 -10 -28 -21 -52 -12 -24 -22 -49 -23 -55 -1 -6
-12 -25 -24 -43 -13 -17 -21 -35 -18 -40 2 -4 1 -14 -3 -21 -6 -10 -10 -9 -14
4 -5 10 -3 14 5 9 7 -4 8 -3 4 5 -8 13 -26 6 -26 -11 0 -9 -74 -98 -75 -90 0
2 -16 -1 -35 -6 -30 -9 -31 -10 -9 -11 14 -1 30 4 36 10 9 9 12 7 11 -7 -2
-15 -8 -19 -27 -16 -16 2 -34 -4 -48 -17 -12 -12 -31 -20 -42 -18 -25 4 -39
17 -20 18 8 1 1 5 -16 9 l-30 8 27 1 c15 0 29 -3 32 -8 3 -4 17 -6 31 -3 l26
4 -25 13 c-28 15 -72 13 -103 -3 -12 -7 -29 -12 -38 -12 -9 0 -14 -3 -12 -7 3
-5 -23 -7 -56 -7 -39 1 -71 -4 -85 -13 -13 -8 -26 -13 -28 -10 -3 3 16 16 41
30 25 14 43 22 40 16 -9 -13 9 -11 23 3 10 10 15 10 22 -2 7 -11 9 -7 7 15 -1
21 2 29 12 27 18 -4 42 18 34 31 -3 5 -2 7 4 4 6 -4 20 4 31 16 19 20 28 22
69 17 38 -5 58 -1 93 16 54 27 95 68 85 85 -5 7 -4 10 3 5 13 -8 56 60 46 75
-4 8 -3 9 4 5 7 -4 12 -1 12 7 0 8 13 29 29 46 36 38 50 74 27 65 -9 -3 -16
-12 -16 -20 0 -8 -7 -14 -16 -14 -23 0 -134 -131 -134 -158 0 -15 -101 -63
-147 -68 -26 -4 -58 -14 -69 -23 -137 -104 -183 -135 -243 -166 -93 -46 -97
-69 -10 -61 33 3 69 11 80 16 10 6 29 10 42 9 12 -1 38 -1 57 0 30 2 32 4 15
12 -15 7 -12 8 15 4 19 -2 65 -5 103 -6 41 -1 74 -8 85 -16 9 -8 12 -12 5 -9
-6 4 -22 -8 -34 -26 -13 -18 -26 -35 -30 -38 -14 -11 -91 -183 -92 -208 -1
-15 -6 -31 -12 -35 -7 -6 -6 -10 1 -13 7 -3 10 -13 7 -23 -2 -9 2 -23 10 -29
11 -9 19 -8 35 7 12 10 22 25 22 34 0 8 3 17 8 19 4 2 36 36 72 76 35 40 105
102 155 138 51 36 92 70 92 77 0 7 4 20 8 29 5 12 2 17 -12 17 -10 0 -56 2
-102 3 -73 3 -85 6 -92 23 -4 11 -8 14 -8 8 -1 -7 -11 -12 -23 -12 -17 1 -19
2 -6 6 10 2 18 9 18 14 0 5 7 9 15 9 8 0 15 -7 15 -16 0 -12 11 -15 55 -13 32
2 52 6 48 12 -4 6 6 8 27 4 18 -4 38 -7 44 -8 6 0 2 -5 -9 -10 -18 -8 -17 -9
5 -5 18 3 30 -2 43 -20 16 -21 16 -25 3 -30 -9 -3 -13 -10 -11 -15 3 -5 -1
-22 -10 -39 -9 -17 -13 -35 -10 -41 4 -5 1 -8 -6 -7 -18 4 -50 -83 -37 -99 17
-22 45 3 66 59 60 157 59 156 130 116 39 -22 48 -23 32 -4 -6 8 -32 23 -57 32
-44 17 -46 17 -60 -2 -13 -18 -14 -17 -8 9 6 21 4 27 -9 27 -9 0 -16 5 -16 10
0 13 17 13 25 -1 4 -6 14 -8 22 -5 8 3 27 -3 43 -14 15 -11 32 -20 38 -20 12
0 33 -25 36 -43 1 -8 16 -27 34 -42 18 -15 44 -47 58 -72 15 -24 29 -41 32
-38 7 7 42 -25 42 -39 0 -6 -9 0 -20 14 -11 14 -20 21 -20 16 0 -11 36 -59 78
-104 17 -18 33 -46 37 -62 4 -17 15 -35 26 -40 10 -6 19 -17 19 -25 0 -8 7
-15 15 -15 8 0 15 -6 15 -14 0 -7 11 -16 25 -18 18 -4 26 0 31 14 3 11 12 17
19 15 13 -6 14 33 0 65 -4 10 -4 25 -1 34 3 9 2 12 -5 8 -7 -4 -10 4 -9 22 4
52 2 58 -15 44 -12 -10 -13 -7 -5 20 7 26 7 31 -5 26 -8 -3 -15 -1 -15 5 0 6
-5 7 -12 3 -7 -4 -8 -3 -4 5 4 6 3 17 -2 24 -5 7 -23 38 -41 71 -29 53 -31 64
-25 115 3 31 19 89 34 129 15 39 24 72 20 72 -5 0 -14 -16 -20 -35 -12 -36
-30 -47 -30 -18 0 9 3 13 6 10 4 -4 26 36 49 87 23 52 54 114 68 140 14 25 21
46 16 46 -5 0 6 14 25 31 19 16 33 36 30 43 -3 7 1 13 8 13 7 0 36 9 63 20 28
11 56 18 63 16 15 -6 16 -33 1 -33 -5 0 -8 4 -4 9 3 5 1 13 -5 16 -7 4 -10 -6
-10 -27 2 -41 -23 -123 -38 -123 -6 0 -14 -4 -19 -9 -5 -5 -3 -6 5 -2 6 4 12
2 12 -3 0 -6 -7 -11 -16 -11 -9 0 -12 -5 -8 -12 5 -8 2 -9 -10 -5 -9 4 -15 3
-12 -1 6 -9 -53 -76 -75 -84 -18 -7 -33 -78 -20 -91 4 -4 18 13 31 39 12 27
50 77 85 113 34 37 72 84 84 106 25 48 29 133 6 141 -25 10 -85 -5 -85 -21 0
-8 -5 -15 -11 -15 -5 0 -7 5 -4 10 9 15 -3 12 -37 -7 -34 -21 -103 -127 -148
-228 -17 -39 -35 -78 -40 -87 -7 -13 -7 -18 2 -18 8 0 7 -4 -3 -10 -15 -9 -32
-48 -59 -136 -17 -58 -6 -187 18 -213 11 -12 11 -15 0 -23 -10 -8 -10 -9 2 -5
16 5 16 10 5 39 -14 35 10 17 34 -25 13 -23 41 -68 63 -100 21 -32 36 -63 32
-68 -3 -5 -1 -9 4 -9 11 0 22 -68 14 -88 -2 -6 -10 -12 -18 -12 -8 0 -14 -4
-14 -9 0 -5 -17 7 -38 27 -21 20 -37 40 -35 44 2 4 -1 9 -7 13 -5 3 -10 11
-10 16 0 6 5 7 12 3 7 -4 8 -3 4 5 -4 6 -12 9 -17 6 -5 -4 -9 -3 -9 2 0 4 -14
22 -30 40 -31 33 -39 50 -17 36 6 -4 4 5 -6 21 -37 57 -8 34 46 -36 127 -163
149 -167 67 -13 -30 57 -56 102 -58 100 -2 -2 4 -17 12 -33 9 -17 13 -38 10
-46 -5 -13 -15 -7 -45 26 -21 24 -38 46 -39 50 -1 22 -174 189 -212 205 -21 8
-36 20 -35 25 1 6 26 24 56 40 43 22 56 26 64 16 6 -10 7 -9 4 3 -4 13 5 20
39 28 25 6 42 16 39 21 -3 5 0 7 8 4 8 -3 29 9 46 26 18 16 38 30 45 30 6 0 4
5 -4 10 -8 5 -10 10 -5 10 6 0 11 16 12 35 4 48 -22 47 -37 -2 -20 -61 -71
-102 -117 -94 -7 1 -13 -3 -13 -10 0 -6 -7 -9 -14 -6 -8 3 -37 -6 -63 -20 -83
-44 -105 -38 -57 14 l25 28 -16 -30 -17 -30 19 25 c37 51 109 123 173 173 86
67 89 69 65 62 -15 -5 -17 -4 -6 3 8 6 19 8 26 6 18 -7 58 42 48 60 -7 13 -23
5 -93 -45 -113 -80 -122 -88 -114 -100 3 -6 0 -9 -7 -8 -8 1 -22 -1 -31 -5
-10 -5 -25 -6 -33 -2 -13 5 -13 8 2 25 9 11 20 18 24 15 7 -4 20 27 60 138 7
20 15 35 19 33 3 -2 6 4 6 13 0 9 4 27 8 40 5 16 3 22 -8 22 -9 0 -16 -8 -16
-19 0 -11 -4 -23 -10 -26 -5 -3 -10 -14 -10 -25 0 -10 -7 -21 -16 -24 -11 -4
-14 -13 -10 -31 5 -18 2 -25 -8 -25 -8 0 -17 -7 -20 -16 -3 -8 -2 -12 4 -9 15
9 12 -9 -5 -31 -15 -19 -15 -19 -9 1 3 11 -8 -5 -26 -35 -18 -30 -50 -73 -71
-96 -35 -36 -40 -46 -42 -97 -2 -31 -6 -60 -10 -63 -4 -4 -33 -2 -64 5 -32 7
-68 15 -80 17 l-23 4 22 34 c13 19 27 32 32 29 5 -4 6 -1 2 5 -3 5 4 23 17 39
13 15 34 45 46 66 26 42 112 283 104 291 -13 13 141 66 252 86 93 17 178 31
215 34 23 2 47 9 54 15 9 8 13 7 13 -4 0 -8 -5 -15 -10 -15 -5 0 -32 -18 -60
-41 -28 -22 -53 -36 -55 -30 -5 14 -32 14 -32 0 0 -5 5 -7 10 -4 6 3 10 2 10
-4 0 -5 -5 -11 -12 -13 -6 -2 -13 -14 -15 -26 -2 -17 2 -22 18 -22 24 0 71 48
62 63 -3 6 -1 7 5 3 17 -10 50 16 46 36 -1 10 3 21 8 25 7 3 8 1 4 -5 -4 -7
-2 -12 4 -12 6 0 8 -6 4 -12 -4 -8 -3 -10 2 -5 5 5 9 14 9 19 0 6 6 13 14 16
9 3 11 0 6 -8 -6 -9 -3 -9 14 -1 11 7 21 14 21 17 0 3 -6 2 -12 -2 -8 -4 -9
-3 -5 2 5 5 14 9 20 10 38 3 76 18 70 28 -3 6 0 6 8 -1 7 -7 30 -13 51 -13 31
0 37 3 32 18 -2 9 1 7 7 -5 9 -17 21 -23 46 -23 37 0 98 -23 124 -46 25 -22
62 -2 54 29 -6 20 -4 20 18 -4 16 -18 29 -24 38 -18 7 4 11 9 9 11 -3 2 -26
18 -52 36 -54 37 -73 41 -65 11 7 -27 -10 -32 -58 -14 -29 10 -34 14 -17 15
13 0 32 -5 42 -10 16 -8 18 -8 14 5 -6 15 -40 20 -97 16 -16 -1 -35 3 -43 10
-11 9 -17 9 -29 -1 -9 -7 -18 -10 -21 -7 -10 10 6 27 26 27 10 0 25 6 32 13
16 15 78 21 78 7 0 -5 -12 -10 -27 -11 -16 0 -37 -4 -47 -8 -19 -7 -19 -8 -1
-15 10 -3 21 -2 24 3 4 6 76 8 178 7 95 -2 170 1 167 5 -3 5 2 6 10 3 9 -3 16
-11 16 -16 0 -6 12 -7 28 -4 16 4 22 3 14 -2 -9 -6 0 -12 28 -21 76 -23 108
-48 115 -92 4 -21 10 -39 13 -39 4 0 8 -14 9 -31 3 -45 50 -186 79 -238 13
-24 22 -47 19 -51 -3 -4 1 -10 9 -13 14 -5 76 -109 76 -127 0 -5 -14 -8 -30
-6 -41 5 -51 16 -15 16 16 0 26 3 22 6 -3 4 -23 3 -44 -1 l-38 -7 30 -14 c29
-14 16 -13 -36 2 -13 4 -19 2 -15 -4 5 -9 -29 -24 -59 -26 -5 -1 -10 -14 -10
-31 0 -25 4 -30 28 -33 16 -2 31 -10 34 -18 3 -8 12 -14 20 -14 8 0 26 -9 40
-20 14 -11 29 -17 34 -14 5 3 6 -1 3 -9 -2 -7 8 -27 24 -43 24 -23 28 -33 21
-51 -9 -24 -23 -27 -103 -23 -29 1 -36 -1 -30 -12 5 -9 2 -8 -11 2 -17 14 -18
13 -12 -3 4 -11 3 -16 -3 -12 -6 3 -10 -1 -10 -9 0 -25 21 -29 36 -7 15 21 37
23 63 7 11 -7 12 -6 6 5 -7 12 -6 12 7 1 12 -9 18 -10 23 -2 5 8 11 8 21 -1 8
-6 15 -9 15 -5 1 3 3 11 4 16 1 6 3 22 4 37 l1 27 41 -39 c22 -22 61 -71 87
-110 61 -92 73 -105 94 -105 10 0 18 -7 18 -15 0 -8 6 -15 13 -16 6 0 25 -2
40 -3 24 -1 26 0 13 10 -9 6 -16 18 -16 27 0 8 -7 17 -14 20 -10 4 -13 1 -9
-9 6 -16 -14 -19 -36 -5 -9 6 -12 18 -7 36 4 15 2 43 -4 64 -27 84 -43 120
-53 114 -6 -4 -7 -1 -3 6 5 7 3 24 -3 39 -6 15 -15 40 -21 57 -8 21 -13 26
-19 16 -5 -8 -14 -10 -20 -7 -6 4 -9 11 -6 16 3 5 1 11 -5 15 -12 8 -13 25 -1
25 5 0 12 -10 16 -22 6 -21 8 -21 12 -4 3 10 0 23 -6 29 -15 15 -14 30 1 21 7
-4 8 -3 4 5 -4 6 -11 9 -16 6 -4 -3 -10 5 -13 16 -4 16 1 23 26 33 18 7 41 17
52 21 11 4 35 9 53 10 26 1 32 -2 32 -19 0 -39 25 -105 45 -120 11 -8 17 -17
14 -21 -4 -3 -18 5 -32 19 -15 14 -23 26 -19 26 4 0 -9 15 -29 33 -19 18 -34
38 -33 45 1 7 0 8 -3 2 -3 -8 -9 -8 -18 0 -9 8 -15 8 -20 0 -3 -6 -11 -7 -17
-4 -6 4 -8 1 -5 -7 3 -8 11 -31 18 -51 8 -25 16 -35 26 -31 13 5 13 2 4 -15
-7 -12 -17 -22 -23 -22 -6 0 -9 -2 -6 -5 10 -10 36 6 41 26 3 12 -2 23 -14 29
-19 11 -26 30 -11 30 13 0 117 -92 114 -102 -3 -12 12 -10 31 5 16 11 15 17
-5 82 -13 39 -27 73 -31 76 -5 3 -8 8 -8 10 2 13 -13 49 -20 49 -5 0 -9 -3 -9
-7 0 -5 -17 -8 -37 -9 -21 -1 -66 -3 -100 -5 l-61 -3 20 -50 c10 -28 22 -54
24 -58 3 -4 0 -8 -6 -8 -6 0 -16 12 -23 28 -6 15 -18 32 -26 38 -8 6 -11 16
-7 22 4 7 1 12 -9 12 -9 0 -13 4 -10 10 6 9 -21 70 -31 70 -2 0 0 -9 6 -19 5
-11 10 -23 10 -28 -1 -4 -7 3 -14 17 -8 14 -12 29 -9 34 3 5 -3 16 -14 25 -24
18 -40 61 -24 61 6 0 11 -7 11 -15 0 -8 4 -15 9 -15 12 0 74 -98 74 -116 0 -9
4 -10 11 -5 6 5 36 12 66 15 78 9 120 17 120 25 0 3 44 5 97 3 81 -2 98 0 106
14 8 14 11 13 24 -5 8 -12 25 -21 41 -21 21 0 24 -2 12 -10 -9 -6 -10 -10 -3
-10 6 0 15 -9 18 -20 6 -19 45 -29 45 -12 0 12 -54 62 -67 62 -6 0 -25 16 -42
35 -22 25 -35 33 -48 28 -17 -7 -17 -6 0 11 23 23 22 29 -3 16 -16 -8 -18 -8
-14 4 3 7 -7 37 -21 65 -24 46 -30 51 -59 50 l-31 -1 30 -7 c20 -4 31 -13 32
-26 2 -16 1 -17 -5 -4 -5 12 -19 16 -55 15 -46 -1 -64 9 -29 16 9 2 -17 7 -57
11 -44 5 -82 14 -92 23 -14 12 -18 13 -23 2 -3 -7 -4 -4 -1 7 7 29 -64 96 -93
88 -13 -3 -22 -1 -22 6 0 6 8 8 18 4 12 -4 14 -3 6 6 -12 13 -77 20 -84 8 -3
-5 11 -14 31 -21 51 -18 97 -52 114 -87 22 -42 68 -62 180 -79 l100 -15 22
-44 c12 -24 28 -51 36 -60 33 -39 31 -42 -26 -38 -30 3 -60 8 -66 11 -6 4 -11
3 -11 -2 0 -5 -11 -9 -25 -9 -21 -1 -23 2 -14 14 9 11 9 17 -1 26 -9 9 -14 9
-17 1 -5 -16 -43 -6 -69 17 -11 11 -24 16 -27 12 -4 -3 -7 -1 -7 6 0 7 -4 10
-9 6 -6 -3 -14 3 -20 12 -6 10 -11 14 -11 10 0 -4 -34 15 -75 43 -42 28 -79
49 -84 46 -4 -3 -21 8 -37 25 -18 19 -23 28 -11 24 9 -4 17 -11 17 -15 0 -4 7
-10 15 -14 24 -9 -4 30 -32 45 -13 7 -23 22 -23 33 0 12 -9 50 -20 86 -11 36
-20 71 -20 77 0 19 77 -14 302 -127 109 -55 199 -100 202 -100 3 0 3 7 0 15
-5 12 -2 13 23 1 15 -8 42 -17 58 -20 l30 -7 -25 21 c-14 11 -30 18 -36 16 -5
-2 -21 2 -34 9 -18 10 -28 10 -42 2 -13 -9 -21 -8 -29 0 -9 9 -6 10 12 6 13
-3 22 -4 19 -2 -3 2 -16 13 -29 24 -14 11 -21 14 -17 8 5 -9 2 -11 -8 -7 -9 3
-13 11 -10 16 4 6 -1 6 -13 0 -13 -7 -24 -7 -34 0 -11 8 -11 9 3 4 10 -3 20 0
24 6 4 7 3 8 -4 4 -7 -4 -12 -2 -12 4 0 7 -6 8 -17 2 -23 -12 -43 -5 -37 12 3
8 -8 18 -26 26 -17 7 -35 20 -40 29 -8 14 -11 14 -20 1 -7 -10 -12 -12 -17 -4
-5 6 -18 15 -31 19 -13 4 -21 10 -17 13 5 6 -12 13 -148 60 -34 11 -49 23 -53
39 -6 22 -24 33 -24 14 0 -4 -18 -3 -40 2 -22 6 -40 15 -40 19 0 4 -17 8 -38
8 -20 0 -52 4 -69 9 -43 12 -163 16 -238 8 -46 -5 -53 -5 -30 3 17 6 50 13 75
16 24 3 47 8 50 11 3 3 -15 3 -40 -1 -25 -3 -80 -9 -122 -12 -47 -4 -82 -12
-89 -20 -6 -8 -21 -14 -33 -14 -23 0 -61 -20 -38 -20 7 0 10 -5 7 -11 -5 -6
-11 -5 -18 5 -11 14 -17 14 -51 2 -34 -12 -37 -15 -20 -24 16 -9 16 -10 -6 -9
-14 0 -33 -3 -42 -7 -13 -6 -18 -4 -18 9 0 12 5 15 20 10 12 -4 20 -2 20 5 0
8 -14 10 -47 6 -27 -4 -63 -9 -82 -11 -19 -2 -39 -9 -44 -14 -6 -6 -22 -10
-37 -10 -24 1 -23 2 5 9 l30 8 -35 0 c-44 2 -218 -23 -226 -31 -6 -6 5 -5 121
12 38 6 64 6 70 -1 7 -6 5 -9 -5 -7 -8 1 -40 -1 -70 -6 -30 -4 -62 -9 -70 -10
-48 -7 -86 -18 -112 -31 -25 -13 -32 -14 -39 -2 -8 12 -13 4 -10 -15 1 -5 -3
-6 -9 -2 -12 7 17 55 33 55 11 0 17 5 75 59 19 17 36 31 39 31 5 0 116 47 193
82 43 19 59 34 60 51 0 9 -9 8 -35 -2z m-271 -127 c-7 -3 -10 -14 -7 -24 4
-14 -2 -21 -21 -26 -14 -3 -26 -10 -26 -16 0 -5 -4 -7 -9 -4 -12 8 -54 -63
-47 -79 3 -9 -2 -11 -16 -7 -12 3 -19 1 -16 -4 4 -5 -6 -9 -21 -10 -26 -1
-285 -124 -345 -163 -17 -11 -34 -17 -39 -14 -6 3 -7 1 -4 -4 6 -10 -13 -23
-34 -23 -21 0 -6 32 24 50 17 10 43 29 56 40 13 12 30 19 37 16 7 -3 16 0 20
6 4 7 3 8 -4 4 -7 -4 -12 -5 -12 -2 0 3 10 10 21 17 16 8 20 8 14 -1 -5 -8 -1
-7 13 1 12 7 19 15 17 18 -3 2 9 13 26 23 17 11 34 17 36 14 3 -3 -6 -11 -21
-17 -14 -7 -26 -16 -26 -22 0 -5 15 0 33 12 17 11 31 26 29 32 -1 6 2 8 8 4 6
-4 25 5 42 20 24 20 33 23 39 13 7 -10 9 -10 9 2 0 9 39 37 90 65 50 27 90 53
90 58 0 4 5 5 10 2 6 -4 7 -11 4 -17 -4 -7 -2 -8 4 -4 9 5 9 13 2 27 -9 16 -7
19 12 18 13 0 18 -3 12 -5z m991 -4 c12 -5 -1 -6 -35 -3 -30 3 -57 7 -59 9 -9
8 75 2 94 -6z m239 -54 c12 5 16 0 16 -17 0 -14 -3 -19 -8 -13 -4 6 -17 14
-29 18 -13 4 -23 12 -23 18 0 7 5 7 14 -1 7 -6 21 -9 30 -5z m-1513 -271 c-17
-20 -31 -40 -31 -46 0 -6 -5 -7 -11 -3 -7 4 4 21 27 45 48 49 56 51 15 4z
m1604 4 c-3 -4 5 -25 18 -46 13 -21 22 -43 20 -49 -2 -6 3 -17 12 -24 17 -14
20 -30 5 -30 -10 0 -46 70 -52 100 -2 8 -6 17 -9 20 -3 3 -9 18 -13 34 -6 26
-5 28 8 17 9 -7 13 -17 11 -22z m111 -114 c16 -8 25 -15 19 -15 -5 0 -1 -6 10
-13 49 -34 75 -49 75 -44 0 3 -16 15 -36 27 -19 12 -33 24 -31 27 3 2 21 -7
42 -21 20 -14 45 -28 56 -31 10 -4 19 -12 19 -19 0 -7 11 -18 25 -24 31 -14
46 -15 25 -2 -13 9 -13 10 1 10 20 0 54 -25 43 -33 -13 -7 -122 -27 -154 -27
-20 0 -32 11 -57 53 -17 28 -43 63 -57 76 -26 24 -35 51 -17 51 5 0 22 -7 37
-15z m-1831 -60 c-11 -8 -25 -18 -30 -23 -6 -5 -16 -7 -23 -4 -8 2 1 12 20 22
39 22 61 25 33 5z m375 -30 c-24 -25 -45 -45 -47 -45 -10 0 6 27 25 43 12 10
19 23 16 29 -4 6 -3 8 2 5 6 -3 16 -2 24 4 29 17 24 8 -20 -36z m-300 -87
c-33 -46 -37 -58 -16 -58 8 0 18 -4 21 -10 3 -6 -5 -10 -18 -10 -25 0 -44 34
-26 46 5 3 6 10 3 16 -4 7 -2 8 5 4 6 -4 14 0 18 11 8 22 25 42 36 43 4 0 -6
-19 -23 -42z m1792 -73 c-2 -11 0 -17 4 -13 8 9 38 -37 61 -92 14 -33 14 -34
-4 -20 -10 7 -6 1 10 -14 15 -15 27 -31 27 -36 0 -6 5 -9 11 -7 6 1 14 -4 17
-12 2 -8 0 -11 -6 -7 -5 3 -13 -1 -16 -10 -5 -12 -14 -8 -43 23 -21 21 -59 56
-85 77 -26 21 -45 43 -41 49 3 5 1 7 -5 4 -15 -10 -43 3 -35 16 3 5 1 7 -4 4
-9 -5 -103 28 -103 36 0 1 35 1 77 0 43 -1 69 1 58 4 -20 6 -20 6 0 13 11 5
34 7 50 6 24 -2 29 -6 27 -21z m-1535 -1 c-15 -8 -25 -20 -21 -26 4 -6 1 -9
-7 -6 -8 3 -15 12 -17 21 -3 12 1 15 14 10 10 -3 15 -2 12 3 -4 5 6 10 20 11
l27 1 -28 -14z m291 -21 c-5 -21 -9 -53 -8 -71 0 -20 -3 -31 -9 -27 -17 10 1
135 19 135 4 0 4 -17 -2 -37z m1457 -14 l20 -23 -35 22 c-19 11 -36 26 -38 32
-6 17 29 -3 53 -31z m-2099 -24 c-9 -14 -24 -37 -33 -52 -10 -16 -20 -30 -24
-33 -17 -13 -58 -110 -47 -110 8 0 7 -4 -3 -12 -18 -15 -42 -68 -31 -68 4 0
33 29 66 65 32 36 61 63 65 61 4 -3 13 -1 21 5 13 7 13 9 1 9 -16 0 22 45 51
61 14 7 16 6 12 -6 -5 -11 -2 -13 10 -9 9 3 13 10 10 15 -3 5 -2 9 3 8 19 -3
33 2 33 12 0 5 -5 7 -12 3 -6 -4 -8 -3 -5 4 4 5 16 8 26 5 10 -3 22 0 25 6 12
19 -51 5 -97 -23 -25 -14 -69 -53 -98 -85 -29 -33 -55 -59 -57 -57 -3 4 81
161 103 189 11 16 22 18 69 12 31 -4 56 -12 56 -17 0 -6 11 -3 25 6 14 9 25
12 25 6 0 -5 -6 -10 -12 -11 -10 0 -10 -2 0 -6 8 -3 -20 -29 -70 -63 -93 -65
-212 -181 -243 -237 -21 -37 -45 -55 -45 -33 0 6 5 8 13 4 8 -5 7 -2 -2 9 -11
14 -12 28 -3 71 14 68 38 126 52 126 6 0 9 4 5 9 -3 5 13 38 35 73 22 35 40
58 40 53 0 -6 -3 -15 -7 -21 -5 -5 0 -1 9 9 9 10 14 25 11 32 -3 10 2 15 17
15 21 0 22 -1 6 -25z m466 -90 c2 3 15 -7 29 -22 13 -15 17 -22 8 -15 -9 6
-18 10 -21 7 -2 -3 -20 12 -39 33 -19 20 -22 27 -8 14 14 -12 28 -20 31 -17z
m1465 -51 c44 -40 72 -72 69 -80 -3 -8 -2 -13 2 -11 11 3 60 -51 67 -74 4 -11
11 -17 16 -14 5 4 5 14 -1 26 -7 11 -7 19 -1 19 14 0 25 -60 13 -72 -10 -10
-72 56 -72 77 0 6 -9 16 -20 23 -11 7 -20 18 -20 24 0 7 -32 43 -71 80 -91 87
-79 88 18 2z m-1707 21 c-18 -47 -40 -85 -50 -85 -12 0 -6 42 10 67 10 16 10
15 5 -4 -10 -35 4 -27 21 12 16 40 29 48 14 10z m1799 -47 c-3 -24 1 -41 8
-34 4 3 13 -4 20 -16 8 -15 12 -18 13 -8 0 13 1 13 10 0 15 -22 12 -30 -7 -23
-27 10 -85 72 -78 83 9 14 36 12 34 -2z m-1309 -183 c0 -5 -11 3 -24 20 -13
16 -21 36 -18 44 3 9 11 3 23 -20 10 -19 18 -38 19 -44z"/>
<path d="M1123 1540 c-41 -16 -24 -21 40 -11 4 0 7 6 7 11 0 12 -17 12 -47 0z"/>
<path d="M1183 1310 c-18 -11 -33 -22 -33 -25 0 -4 5 -3 10 0 6 3 10 4 10 0 0
-3 -12 -10 -26 -15 -14 -6 -23 -14 -19 -19 9 -15 46 -4 62 19 8 12 26 25 40
31 14 5 21 14 17 20 -5 8 -9 8 -14 -1 -5 -8 -9 -9 -11 -1 -3 7 -16 4 -36 -9z"/>
<path d="M1594 1216 c-3 -13 -4 -38 -2 -57 2 -26 7 -34 21 -32 10 0 16 -1 14
-4 -3 -2 10 -37 28 -76 53 -115 68 -178 62 -265 -3 -43 -8 -88 -11 -102 -5
-21 -5 -22 3 -5 9 18 10 17 10 -9 1 -20 -3 -27 -13 -23 -10 4 -19 -6 -27 -31
-7 -20 -12 -40 -11 -44 1 -5 -2 -8 -8 -8 -5 0 -10 -6 -10 -13 0 -7 -19 -42
-42 -76 -87 -130 -116 -191 -90 -191 17 0 53 -43 48 -56 -8 -21 11 -64 29 -64
11 0 15 11 15 45 0 31 5 47 17 53 11 7 14 15 8 28 -7 18 -8 18 -17 -3 -6 -12
-17 -24 -26 -28 -17 -6 -54 23 -46 36 3 5 -2 6 -10 3 -9 -3 -16 -1 -16 5 0 6
4 11 8 11 5 0 15 18 22 40 10 29 16 37 22 28 6 -9 7 -5 3 10 -4 12 -2 22 4 22
20 0 20 -18 1 -68 -18 -46 -18 -52 -4 -52 20 0 48 32 79 93 14 26 32 47 39 47
8 0 17 7 20 16 3 8 10 13 15 9 5 -3 12 -1 16 5 3 5 11 10 18 10 6 0 -9 -20
-33 -45 -24 -24 -45 -51 -46 -59 -1 -8 -11 -25 -22 -37 -17 -17 -19 -25 -9
-40 7 -11 15 -19 18 -19 17 0 42 44 46 82 3 24 9 45 14 46 5 2 9 10 9 17 0 11
102 106 182 168 16 13 18 17 6 13 -10 -3 -18 -1 -18 5 0 7 10 9 25 5 17 -4 31
0 45 14 11 11 25 18 30 15 6 -4 13 1 16 9 3 9 12 16 19 16 6 0 20 9 30 20 10
11 23 20 28 20 6 0 3 -6 -8 -13 -11 -9 -14 -16 -8 -20 14 -9 36 19 40 48 2 14
-3 25 -12 29 -9 3 -14 2 -11 -3 3 -4 -4 -17 -16 -27 -12 -11 -19 -14 -16 -9
10 16 -57 16 -78 0 -10 -8 -14 -15 -7 -15 6 0 15 5 18 10 3 6 16 10 28 10 16
0 9 -8 -28 -30 -27 -16 -52 -26 -55 -23 -3 3 1 8 8 10 6 3 12 10 12 16 0 7
-11 1 -24 -13 -29 -31 -60 -56 -74 -61 -6 -2 -31 -23 -56 -47 -25 -24 -46 -40
-46 -37 0 3 -15 -11 -32 -31 -18 -21 -49 -53 -70 -73 -20 -20 -36 -39 -37 -44
-1 -17 -19 -39 -29 -36 -8 3 -7 12 3 29 27 48 49 95 50 107 0 6 4 15 9 20 5 4
6 3 2 -4 -5 -9 0 -13 14 -13 19 0 20 1 6 16 -17 17 -21 28 -7 20 11 -7 23 22
15 35 -3 5 0 8 7 7 7 -2 23 13 36 32 14 19 31 34 39 34 10 -1 12 2 5 10 -7 8
5 32 39 79 27 36 48 72 46 79 -1 7 -1 10 1 5 7 -11 23 2 23 19 0 8 -6 14 -14
14 -8 0 -17 8 -20 17 -5 12 -10 13 -18 5 -8 -8 -8 -15 2 -26 7 -10 9 -23 4
-33 -4 -10 -8 -20 -9 -23 0 -3 -17 -22 -37 -42 -20 -21 -42 -51 -49 -68 -8
-16 -17 -30 -22 -30 -4 0 -3 9 3 20 16 30 19 211 5 266 -17 64 -47 140 -75
186 -19 34 -26 51 -30 83 0 6 -7 -3 -15 -20 -12 -26 -13 -27 -14 -8 -1 12 5
25 12 30 18 11 49 14 43 4 -3 -5 4 -7 15 -4 16 4 20 2 17 -8 -3 -8 16 -30 46
-54 64 -50 67 -54 60 -87 -5 -23 -3 -26 15 -21 12 3 21 9 21 14 0 5 -8 6 -17
2 -12 -4 -9 1 7 15 14 12 19 21 12 22 -7 0 -11 4 -7 9 3 6 -14 23 -37 39 -24
16 -54 43 -68 59 -23 27 -85 63 -109 63 -6 0 -13 -11 -17 -24z m35 -781 c-12
-19 -23 -35 -26 -35 -2 0 -1 5 2 10 3 6 1 10 -5 10 -6 0 -8 5 -5 10 4 6 11 7
17 4 8 -5 9 -1 5 10 -4 9 -3 14 2 11 5 -3 12 -1 16 5 3 5 8 10 10 10 2 0 -5
-16 -16 -35z"/>
<path d="M2000 1182 c0 -22 9 -64 19 -95 11 -32 17 -57 14 -57 -4 0 -24 18
-45 41 -21 22 -42 38 -47 35 -5 -3 -14 1 -21 9 -16 20 -36 19 -44 -1 -4 -9 -5
-18 -4 -19 2 -1 16 -11 32 -23 16 -12 33 -22 37 -22 14 0 10 20 -3 20 -14 0
-68 39 -56 40 19 0 105 -61 105 -75 0 -8 -4 -15 -9 -15 -5 0 -6 -5 -3 -11 5
-6 12 -4 22 8 13 17 14 16 9 -7 -4 -19 2 -35 22 -58 41 -48 109 -177 89 -169
-9 3 -34 11 -56 17 -23 6 -42 15 -42 20 -1 6 -3 13 -4 18 -1 4 -6 22 -10 39
-9 37 -30 60 -40 43 -3 -5 -3 -20 1 -33 7 -21 7 -21 15 -2 5 12 6 2 3 -27 -4
-32 -3 -48 5 -48 6 0 11 -8 11 -19 0 -15 10 -19 61 -24 33 -4 70 -14 82 -22
15 -10 17 -15 7 -15 -13 0 -13 -2 0 -10 13 -9 13 -10 0 -10 -12 0 -12 -2 -2
-9 13 -8 47 -109 61 -180 7 -41 22 -48 39 -21 10 17 9 27 -8 59 -11 22 -24 60
-30 86 -6 27 -20 55 -33 65 -20 17 -20 19 -4 25 9 4 17 12 17 18 0 6 -3 7 -7
4 -9 -9 -43 22 -43 39 0 8 -14 36 -31 64 -17 28 -29 53 -26 56 6 6 47 -36 47
-48 0 -4 10 -8 21 -8 18 0 21 -5 17 -29 -2 -17 -1 -28 4 -25 4 3 8 -4 8 -15 0
-12 4 -21 9 -21 9 0 -10 108 -23 128 -4 7 -16 12 -27 12 -10 0 -19 5 -19 11 0
5 -4 7 -10 4 -5 -3 -10 -1 -10 5 0 6 -4 8 -10 5 -5 -3 -10 -2 -10 4 0 5 6 12
13 14 7 4 6 6 -4 6 -10 1 -20 13 -23 29 -4 15 -9 36 -12 47 -4 16 -3 17 5 5 6
-8 11 -10 11 -4 0 14 -35 85 -41 82 -2 -2 1 2 8 8 17 15 16 29 -2 64 -21 41
-35 37 -35 -8z m50 -207 c13 -14 20 -28 17 -32 -6 -5 -57 41 -57 53 0 11 19 2
40 -21z"/>
<path d="M1270 1203 c0 -2 7 -11 15 -19 13 -14 17 -14 31 0 12 12 12 16 2 17
-7 0 -21 2 -30 4 -10 2 -18 1 -18 -2z"/>
<path d="M1384 1105 c-10 -17 -27 -37 -38 -46 -17 -14 -17 -16 -1 -32 15 -15
13 -21 -7 -18 -5 0 -8 -12 -8 -29 0 -16 4 -30 10 -30 17 0 42 48 35 70 -4 13
1 33 15 55 27 43 21 72 -6 30z"/>
<path d="M1809 995 c0 -11 -3 -14 -6 -7 -7 17 -23 15 -23 -3 0 -10 10 -14 35
-13 20 1 31 5 24 8 -6 4 -15 14 -20 21 -7 11 -9 9 -10 -6z"/>
<path d="M1457 853 c-12 -11 -8 -20 19 -38 28 -18 54 -7 54 24 0 10 -3 12 -8
5 -11 -16 -41 -24 -47 -14 -4 6 3 10 15 10 12 0 18 5 15 10 -7 11 -38 13 -48
3z"/>
<path d="M2738 823 c-47 -5 -52 -30 -5 -29 17 0 43 -3 56 -8 16 -6 21 -5 17 3
-5 7 4 10 27 9 24 -2 33 -7 29 -17 -4 -10 1 -11 18 -6 16 5 20 4 15 -5 -5 -8
0 -7 14 2 20 12 20 14 4 26 -9 7 -33 17 -53 22 -35 10 -51 10 -122 3z"/>
<path d="M2935 760 c-11 -5 -15 -9 -8 -9 6 -1 10 -10 8 -21 -2 -11 0 -18 6
-15 5 4 9 1 9 -4 0 -6 9 -11 20 -11 11 0 20 5 20 10 0 6 -7 10 -15 10 -13 0
-20 18 -16 43 1 8 2 8 -24 -3z"/>
<path d="M1223 570 c-2 -20 11 -33 35 -36 18 -3 15 9 -8 34 -25 27 -25 27 -27
2z"/>
<path d="M2710 554 c0 -24 21 -37 45 -28 22 9 18 26 -4 19 -13 -4 -23 0 -30
12 -10 17 -10 16 -11 -3z"/>
<path d="M229 473 c-1 -5 -1 -12 0 -17 1 -4 -5 -19 -14 -32 -13 -20 -19 -22
-35 -14 -20 10 -39 -3 -20 -15 18 -11 82 6 76 21 -3 7 0 11 7 8 7 -2 23 5 35
16 20 19 22 19 22 3 0 -12 3 -14 10 -7 12 12 3 44 -11 44 -5 0 -14 -9 -21 -20
-15 -23 -34 -26 -41 -6 -4 9 1 17 11 19 16 4 15 5 0 6 -10 0 -19 -2 -19 -6z"/>
<path d="M70 444 c0 -7 10 -14 23 -16 12 -2 21 -9 20 -16 -2 -6 4 -12 12 -12
28 0 15 26 -20 42 -27 12 -35 13 -35 2z"/>
<path d="M2650 414 c0 -10 6 -11 25 -4 18 7 28 5 40 -6 8 -9 15 -13 15 -9 0 3
11 -2 25 -11 18 -12 37 -15 68 -11 26 4 63 0 91 -8 29 -9 54 -11 63 -6 12 6 5
10 -23 15 -22 4 -53 12 -71 18 -25 9 -38 9 -56 -1 -21 -11 -31 -10 -73 9 -60
27 -104 33 -104 14z"/>
<path d="M1006 345 c4 -8 12 -15 20 -15 17 0 18 -32 2 -48 -7 -7 -9 -12 -5
-12 8 0 47 42 47 51 0 4 -11 10 -25 13 -14 4 -25 11 -25 16 0 6 -4 10 -10 10
-5 0 -7 -7 -4 -15z"/>
<path d="M726 324 c-9 -33 -6 -36 18 -18 11 8 14 14 7 14 -7 0 -10 4 -6 9 3 5
1 12 -4 15 -5 3 -12 -6 -15 -20z"/>
<path d="M1726 322 c-4 -7 -3 -12 3 -12 6 0 8 -7 5 -15 -4 -8 -1 -15 5 -15 6
0 8 -8 5 -17 -5 -17 -5 -17 6 0 14 22 45 23 36 1 -4 -9 -1 -14 6 -12 16 6 18
31 3 51 -12 16 -13 16 -19 1 -5 -14 -9 -13 -24 7 -13 15 -21 19 -26 11z"/>
<path d="M877 306 c-3 -8 -1 -17 6 -20 9 -3 9 -5 0 -5 -7 -1 -10 -11 -7 -28 7
-37 24 -54 24 -25 0 19 3 21 19 12 17 -9 19 -7 17 16 -2 15 -12 31 -22 37 -10
6 -22 14 -25 19 -3 6 -9 3 -12 -6z"/>
<path d="M2008 313 c-22 -6 -22 -10 -2 -30 11 -12 18 -13 27 -4 6 6 7 11 3 11
-5 0 -3 7 4 15 13 16 5 18 -32 8z"/>
<path d="M1111 303 c-1 -7 -8 -13 -16 -13 -8 0 -15 -7 -15 -16 0 -10 -6 -14
-15 -10 -9 3 -15 0 -15 -9 0 -8 5 -15 10 -15 6 0 10 -6 10 -13 0 -8 7 -14 15
-14 8 0 15 9 15 19 0 11 5 28 11 39 6 11 8 25 5 32 -3 9 -5 9 -5 0z"/>
<path d="M2475 270 c-4 -6 -10 -8 -15 -5 -4 3 -11 -2 -14 -11 -6 -15 -4 -15
17 -1 24 16 63 5 52 -14 -3 -5 1 -6 9 -3 12 5 12 8 -2 25 -18 21 -37 25 -47 9z"/>
<path d="M1390 240 c0 -6 -9 -14 -19 -18 -19 -7 -18 -8 5 -19 19 -9 24 -8 24
2 0 7 3 20 6 29 3 9 1 16 -5 16 -6 0 -11 -5 -11 -10z"/>
<path d="M2790 240 c0 -5 -7 -10 -15 -10 -10 0 -15 -10 -15 -32 1 -29 2 -31
12 -14 10 18 12 18 23 2 9 -12 15 -14 20 -5 4 6 1 15 -6 20 -11 7 -12 12 -1
29 10 17 10 20 -3 20 -8 0 -15 -4 -15 -10z"/>
<path d="M2900 214 c0 -8 -4 -12 -10 -9 -5 3 -20 -1 -32 -10 l-23 -17 24 7
c17 5 21 4 16 -5 -4 -7 4 -4 19 5 26 17 36 45 16 45 -5 0 -10 -7 -10 -16z"/>
<path d="M2191 184 c-12 -13 -19 -29 -17 -33 3 -5 -6 -7 -19 -5 -14 1 -25 -2
-25 -7 0 -5 7 -9 16 -9 8 0 12 -4 9 -10 -3 -5 -1 -10 4 -10 6 0 11 -8 11 -17
0 -13 3 -14 12 -5 7 7 23 12 36 12 17 0 22 4 19 14 -4 11 -1 13 10 9 11 -4 14
-2 9 5 -10 16 -22 15 -40 -3 -13 -13 -15 -12 -14 15 1 17 6 30 14 30 7 0 11 7
10 15 -4 26 -12 25 -35 -1z"/>
<path d="M2000 185 c-7 -9 -11 -18 -8 -20 9 -10 38 7 38 21 0 18 -14 18 -30
-1z"/>
<path d="M1896 179 c4 -7 0 -9 -12 -5 -11 3 -26 1 -34 -4 -10 -6 -11 -10 -2
-10 6 0 12 -8 12 -17 0 -14 4 -12 25 7 26 25 32 40 14 40 -5 0 -7 -5 -3 -11z"/>
<path d="M2400 170 c0 -12 5 -18 10 -15 6 3 10 1 10 -5 0 -6 5 -8 10 -5 16 10
12 23 -10 35 -17 9 -20 8 -20 -10z"/>
<path d="M2098 174 c-6 -6 -32 -12 -57 -13 -24 -2 8 -31 34 -31 20 0 55 27 55
43 0 8 -24 9 -32 1z"/>
<path d="M330 159 c-10 -7 -11 -12 -4 -15 6 -3 9 -17 6 -32 -3 -15 -2 -25 1
-22 3 3 7 16 9 30 1 14 7 28 12 31 14 11 -9 18 -24 8z"/>
<path d="M1223 136 c0 -18 4 -22 18 -19 15 4 16 9 8 24 -14 26 -26 24 -26 -5z"/>
<path d="M2600 110 c0 -22 -5 -30 -17 -30 -11 0 -14 -3 -7 -8 6 -4 10 -15 8
-25 -1 -9 2 -15 7 -11 5 3 7 10 4 15 -4 5 -1 9 4 9 6 0 11 -5 11 -12 0 -9 3
-9 12 0 8 8 8 15 -2 27 -7 8 -8 15 -3 15 5 0 10 7 10 15 0 8 -4 15 -9 15 -5 0
-6 5 -3 10 3 6 1 10 -4 10 -6 0 -11 -13 -11 -30z"/>
<path d="M137 123 c-2 -4 -10 -26 -17 -48 -7 -22 -20 -45 -29 -52 -14 -11 -12
-12 11 -13 49 0 55 7 51 62 -3 52 -7 66 -16 51z"/>
<path d="M1552 108 c-6 -13 -10 -35 -8 -51 2 -15 0 -27 -3 -27 -4 0 -16 -7
-27 -15 -18 -13 -16 -14 26 -15 30 0 41 3 34 10 -7 7 -8 29 -4 55 8 53 -1 75
-18 43z"/>
<path d="M2257 83 c-4 -3 -7 -14 -7 -23 0 -13 6 -16 25 -12 28 5 31 12 13 30
-14 14 -22 15 -31 5z"/>
<path d="M190 62 c0 -13 46 -35 62 -29 9 4 7 6 -4 6 -10 1 -18 8 -18 16 0 8
-9 15 -20 15 -11 0 -20 -4 -20 -8z"/>
<path d="M1968 63 c-20 -5 -24 -28 -7 -38 6 -4 13 2 16 14 3 11 10 18 16 14 6
-3 7 -1 3 5 -4 7 -8 11 -9 11 -1 -1 -10 -3 -19 -6z"/>
<path d="M2683 59 c13 -8 17 -18 13 -35 -4 -14 -2 -24 4 -24 5 0 10 4 10 9 0
5 9 13 20 16 11 3 20 10 20 15 0 5 -7 7 -16 3 -10 -4 -20 0 -26 10 -5 10 -17
17 -26 17 -15 -1 -15 -2 1 -11z"/>
<path d="M337 36 c-24 -18 -21 -26 8 -26 15 0 25 6 25 14 0 22 -13 26 -33 12z"/>
<path d="M1427 30 c8 -30 21 -33 33 -9 7 13 8 19 2 15 -6 -3 -13 -2 -17 4 -11
18 -23 11 -18 -10z"/>
<path d="M2158 43 c-10 -2 -18 -9 -18 -15 0 -5 -7 -8 -15 -4 -9 3 -15 0 -15
-9 0 -18 21 -20 38 -3 8 8 15 8 25 0 8 -7 16 -9 19 -6 7 7 -2 44 -11 43 -3 -1
-14 -3 -23 -6z"/>
<path d="M2253 26 c-13 -6 -23 -14 -23 -18 0 -11 38 -4 51 9 16 16 -2 21 -28
9z"/>
</g>
</svg>
