<?xml version="1.0" encoding="UTF-8"?><svg xmlns="http://www.w3.org/2000/svg" xmlns:xlink="http://www.w3.org/1999/xlink" viewBox="0 0 1280.4 1280.88"><defs><style>.cls-1{fill:url(#linear-gradient-2);}.cls-2{fill:url(#linear-gradient-3);}.cls-3{fill:url(#linear-gradient);}.cls-4{fill:url(#linear-gradient-4);}</style><linearGradient id="linear-gradient" x1="112.89" y1="708.57" x2="1280.39" y2="708.57" gradientUnits="userSpaceOnUse"><stop offset="0" stop-color="#80878e" stop-opacity=".5"/><stop offset="1" stop-color="#494951"/></linearGradient><linearGradient id="linear-gradient-2" x1="0" y1="640.42" x2="1280.39" y2="640.42" gradientUnits="userSpaceOnUse"><stop offset="0" stop-color="#2f93ff" stop-opacity=".5"/><stop offset=".45" stop-color="#cd507e" stop-opacity=".76"/><stop offset=".72" stop-color="#b271be" stop-opacity=".88"/><stop offset="1" stop-color="#9893ff"/></linearGradient><linearGradient id="linear-gradient-3" x1="1279.32" y1="1279.9" x2="1280.4" y2="1279.9" xlink:href="#linear-gradient-2"/><linearGradient id="linear-gradient-4" x1="732.62" y1="302.33" x2="735.17" y2="302.33" xlink:href="#linear-gradient-2"/></defs><g id="Layer_2"><path class="cls-3" d="m1276.55,1280.83c-1.61-1.45-3.61-1.09-5.49-1.1-12.8-.02-25.59-.01-38.39-.01-124.77,0-249.55,0-374.32.01-23.2,0-46.39,0-69.59,0-2.56,0-5.12-.14-7.67-.14-2.11,0-3.65-.89-4.79-2.64-4.01-6.16-8.2-12.21-12.04-18.48-2.35-3.84-4.81-7.55-8.08-10.66-6.84-6.53-12.93-13.72-19.15-20.81-3.69-4.2-7.7-8.13-11.78-11.95-2.66-2.49-4.76-5.13-5.17-8.86-.03-.29-.32-.54-.5-.83-4.72-1.54-7.9-5.08-11.06-8.62-.84-.95-1.55-2.04-2.18-3.15-.84-1.46-1.89-2.48-3.59-2.9-2.09-.52-3.58-1.86-4.82-3.68-1.72-2.52-3.99-4.57-6.59-6.22-2.03-1.29-3.78-2.87-5.46-4.62-1.75-1.81-3.93-3.25-6.07-4.64-3.48-2.27-7.14-4.26-10.6-6.57-2.71-1.81-5.68-2.88-8.73-3.84-1.67-.52-3.29-1.19-4.96-1.71-1.05-.32-2.23-.84-3.21-.63-2.23.47-3.74-.61-5.13-1.94-1.56-1.49-3.36-2.2-5.43-2.78-2.72-.76-5.4-1.69-7.78-3.53-2.37-1.82-5.2-3.07-7.89-4.44-1.46-.75-2.64-1.67-3.63-3-1.91-2.57-4.07-4.87-7.06-6.34-1.23-.61-2.25-1.78-3.19-2.85-3.58-4.08-6.99-8.31-11.24-11.77-1.09-.89-1.88-2.15-2.78-3.26-.9-1.11-1.65-2.37-2.68-3.34-1.85-1.74-2.96-3.82-3.16-6.28-.21-2.51-1.26-4.57-2.63-6.58-5.43-7.91-10.75-15.89-16.27-23.74-1.92-2.73-4.22-5.21-6.46-7.7-5.88-6.54-11.82-13.02-17.73-19.52-3.98-4.38-7.92-8.79-11.93-13.13-3.47-3.76-7.08-7.38-9.07-12.26-.45-1.09-1.5-2.22-2.56-2.72-2.92-1.38-4.64-3.87-6.39-6.33-2.04-2.86-3.85-5.9-5.92-8.74-1.21-1.66-2.58-3.28-4.15-4.59-3.13-2.61-5.6-5.61-6.89-9.52-.25-.75-.63-1.48-1.07-2.14-5.91-8.74-11.77-17.51-17.8-26.16-2.01-2.89-4.07-5.7-5.57-8.91-.8-1.72-1.8-3.45-3.08-4.84-2.33-2.53-3.93-5.36-5.02-8.61-1.09-3.23-2.72-6.1-6.14-7.6-.88-.39-1.59-1.53-2.03-2.49-1.64-3.62-3.13-7.31-4.68-10.97-.12-.29-.22-.66-.45-.84-3.19-2.56-4.54-6.43-6.92-9.56-.48-.64-1.22-1.16-1.47-1.87-.94-2.73-1.86-5.36-4.51-7.06-.63-.4-.87-1.7-.96-2.61-.23-2.65-1.77-4.21-3.77-5.78-3-2.35-5.85-4.97-7.14-8.79-.2-.6-.47-1.25-.9-1.69-2.65-2.7-3.97-6.12-5.27-9.55-.11-.3-.32-.56-.41-.86-.75-2.46-3.28-3.48-4.47-5.51-1.22-2.08-2.2-4.21-4.51-5.4-1.31-.67-2.11-1.94-2.51-3.39-.95-3.47-3.12-6.27-4.99-9.24-2.47-3.92-4.98-7.82-7.37-11.78-.85-1.41-1.74-2.67-3.26-3.38-1.66-.78-2.76-2.13-3.8-3.57-3.37-4.66-6.73-9.33-10.15-13.95-.65-.87-1.46-1.79-2.41-2.24-1.91-.91-2.81-2.51-3.66-4.26-.77-1.58-1.55-3.16-2.39-4.7-1.87-3.42-4.73-5.63-8.54-6.41-1.77-.36-3.37-.88-4.77-2.05-.47-.4-1.1-.74-1.7-.83-2.7-.41-4.61-2.04-6.11-3.91-4.97-.29-9.2-1.82-13.14-4.39-3.9-2.55-8.1-4.51-12.73-5.41-3.45-.67-6.89-1.35-10.32-2.1-.92-.2-1.85-.54-2.65-1.02-3.11-1.88-6.48-2.77-10.07-2.62-2.49.11-4.31-.72-5.62-2.85-1.36-2.21-3.48-3.27-6.02-3.37-4.15-.15-8.09-1.97-12.33-1.51-.88.09-1.92-.3-2.72-.75-2.01-1.14-4.21-1.49-6.43-1.79-5.7-.77-11.43-1.36-17.1-2.29-3.46-.56-6.88-1.49-10.25-2.47-6.61-1.93-13.24-3.72-20.04-4.83-3.91-.64-7.31-2.23-10.26-4.84-3.15-2.78-6.73-4.26-10.98-3.64-1.38.2-2.58-.05-3.54-1.01-2.04-2.05-4.59-2.76-7.35-3.13-3.82-.51-7.47-1.68-11.01-3.22-3.23-1.4-6.52-2.58-10.05-3.1-1.88-.28-3.69-1.01-5.51-1.6-2.28-.74-4.5-1.73-6.82-2.29-2.91-.71-5.27-1.88-7.05-4.49-.8-1.18-2.53-1.89-3.98-2.45-3.13-1.2-6.35-2.18-9.55-3.22-2.16-.7-4.15-1.61-5.79-3.26-1.83-1.84-4.01-3.22-6.52-3.91-1.68-.46-2.77-1.49-3.7-2.85-1.8-2.63-3.35-5.44-6.15-7.26-1.31-.85-1.52-2.38-1.55-3.86-.05-2.58-.25-5.08-1.85-7.31-.77-1.07-.64-2.39-.46-3.71.43-3.14.7-6.29,1.08-9.89,2.45-1.78,3.83-4.73,5.28-7.8,2.37-5.03,6.26-8.82,11.4-11.15,1.36-.62,2.75-.87,4.09.14,3.23,2.46,6.51,2.15,9.84.2.54-.32,1.14-.52,1.86-.84.52.38,1.1.66,1.5,1.12,1.37,1.57,3.1,2.19,5.13,2.08,2.23-.12,4.48-.08,6.68-.41,1.98-.3,3.81-.25,5.58.7,2.16,1.16,4.46,1.7,6.92,1.67.95,0,1.93.1,2.84.36,1.52.44,2.99,1.51,4.48,1.51,6.6.02,12.89,2.55,19.48,2.34,2.55-.08,5.12-.29,7.62-.74,1.97-.36,3.79-.24,5.64.41,1.8.64,3.68,1.08,5.46,1.79,1.16.46,2.32,1.1,3.24,1.92,1.62,1.44,3.5,2.14,5.53,2.69,2.3.63,4.55,1.43,6.79,2.26,2.24.83,4.39,1.98,6.68,2.65,1.96.57,4.06.87,6.11.92,3.52.09,7.01-.06,10.36,1.43.91.41,2.28.35,3.24-.01,2.5-.95,4.93-.85,7.53-.57,2.67.29,5.43.04,8.13-.21,1.03-.1,2.17-.66,2.97-1.35,1.85-1.59,3.91-1.96,6.24-1.84,2.23.11,4.48.04,6.72-.04,2.02-.07,3.81.27,5.07,2.07.25.36.75.56,1.21.88,1.24-.11,2.51-.37,3.77-.3,1.08.06,2.42.18,3.14.84,1.62,1.47,3.4,1.53,5.36,1.41,1.5-.09,2.89.27,3.75,1.66.74,1.2,1.86,1.67,3.2,1.81,2.45.26,4.68,1.16,6.47,2.85,1.37,1.29,2.9,1.93,4.76,1.87,1.99-.07,3.72.63,5.4,1.67,2.03,1.25,4.15,2.36,6.31,3.38.98.46,2.13.68,3.22.76,2.13.15,4.01.81,5.88,1.85,1.51.84,3.21,1.44,4.9,1.86,9.92,2.51,19.85,4.96,29.79,7.35,1.2.29,2.55.4,3.75.17,2.56-.49,5.06-.42,7.62-.08,3.79.5,7.37-.38,10.4-2.74,2.17-1.69,4.49-3.03,6.96-4.19.86-.41,1.82-.78,2.47-1.44,3.13-3.17,6.31-6.31,9.2-9.7,2.69-3.15,5.09-6.56,7.52-9.92.54-.74.87-1.72,1.02-2.64.42-2.68,1.75-4.74,3.82-6.43,1.8-1.47,2.53-3.51,3.29-5.68,1.79-5.15,1.93-10.27.83-15.54-.39-1.87-.32-3.82-.63-5.71-1.08-6.66-4.32-12.33-8.39-17.56-7.96-10.22-15.98-20.38-24.02-30.53-2.28-2.87-4.87-5.51-7.05-8.45-3.24-4.36-6.2-8.93-9.35-13.35-1.76-2.47-3.67-4.83-5.5-7.24-.39-.51-.85-.98-1.15-1.53-1.9-3.54-4.09-6.82-7.31-9.37-.95-.75-1.47-2.06-2.09-3.17-1.47-2.64-2.82-5.34-4.34-7.95-.46-.8-1.23-1.47-1.98-2.03-2.45-1.84-4.6-3.87-5.97-6.72-.67-1.39-1.86-2.6-3.01-3.68-7.01-6.55-14.08-13.02-21.12-19.54-2.58-2.39-5.12-4.82-7.65-7.27-1.63-1.58-3.33-2.95-5.67-3.39-3.03-.57-4.89-2.23-4.81-5.56.01-.62-.23-1.24-.4-2.06-2.54-1-4.29-2.99-6.12-5.02-1.44-1.6-3.53-2.61-5.75-4.18-1.97-4.16-5.36-7.91-9.16-11.34-.82-.74-1.4-1.74-2.17-2.54-2.44-2.53-4.96-4.99-7.37-7.55-2.08-2.2-4.06-4.5-6.07-6.77-.85-.96-1.6-2.01-2.51-2.9-4.24-4.11-8.53-8.18-12.79-12.27-.46-.44-.97-.86-1.3-1.39-2.01-3.26-4.06-6.51-5.92-9.86-.94-1.69-2-3.21-3.3-4.66-1.91-2.13-3.57-4.48-5.3-6.77-1.15-1.53-2-3.38-3.4-4.61-3.37-2.94-5.27-6.78-7.21-10.62-.86-1.7-1.65-3.38-2.99-4.85-2.13-2.34-2.62-5.49-2.75-8.52-.2-4.76-.46-9.55.32-14.4-.89-.66-1.75-1.31-2.57-1.92-.35-1.95.57-3.29,1.83-4.29,1.69-1.34,2.76-3.06,3.74-4.91,1.62-3.03,3.89-5.5,6.92-7.12,2.02-1.08,3.68-2.53,5.15-4.24,3.15-3.65,7.47-4.82,11.96-5.23,3.33-.31,6.72-.11,10.07.14,4.21.31,8.32,1,10.7,5.23.6,1.06,1.75,1.32,2.89,1.45,1.94.23,3.2,1.28,3.83,3.14.52,1.55,1.37,2.92,2.75,3.83,1.7,1.12,2.7,2.68,3.26,4.58.57,1.95,1.8,3.32,3.57,4.3,3.11,1.73,5.69,4.06,7.83,6.91.47.62,1.07,1.17,1.7,1.64,5.65,4.19,11.33,8.33,16.96,12.53,1.28.95,2.45,2.05,3.59,3.18,4.42,4.4,8.85,8.79,13.19,13.27,3.02,3.11,6.24,5.95,9.93,8.26,2.16,1.35,4,3.1,5.9,4.81,3.06,2.77,6.53,5.05,8.71,8.73.35.6,1.26,1,1.99,1.21,5.07,1.5,8.78,5.08,12.61,8.38,2.8,2.41,5.5,4.87,8.75,6.66,1.43.79,2.64,1.82,3.37,3.31.89,1.82,2.47,2.81,4.17,3.79,6.23,3.59,12.32,7.46,18.62,10.92,6.58,3.61,13.11,7.38,20.37,9.57.91.28,1.76.75,2.67,1.07,1.45.51,2.47,1.34,2.84,2.94.36,1.59,1.53,2.44,3.14,2.45,2.46.01,3.75,1.45,4.63,3.51.25.59.61,1.14.8,1.74.82,2.73,2.29,4.88,4.99,6.08,1.38.62,2.22,1.75,2.64,3.23.35,1.23.79,2.43,1.23,3.64.88,2.45,2.17,4.62,4.24,6.28,2.27,1.83,4.03,4.05,5.35,6.68,1.31,2.59,3.31,4.68,5.47,6.62.94.84,2.01,1.73,2.5,2.83,1.27,2.83,3.32,5.06,5.1,7.51,3.19,4.4,6.12,8.98,9.31,13.39,1.68,2.32,3.63,4.44,5.5,6.61,1.98,2.3,4.03,4.53,5.99,6.84.61.72,1.21,1.56,1.46,2.44.82,2.92,2.67,5.14,4.95,6.9,3.12,2.42,5.47,5.45,7.18,8.88,2.06,4.11,5.4,5.57,9.68,5.85,4.61.3,8.53-.92,11.46-4.67,2.5-3.19,4.12-6.85,5.6-10.56,1.14-2.85,2.32-5.56,4.77-7.62.73-.61,1.07-1.93,1.18-2.97.12-1.07-.32-2.2-.37-3.31-.1-2.22-.48-4.53-.05-6.66.66-3.28.41-6.4-.62-9.45-2.56-7.63-3.71-15.53-4.62-23.47-.23-2.01-.81-3.69-2.35-5.05-1.86-1.64-2.84-3.82-3.59-6.13-.69-2.14-1.86-3.96-3.16-5.83-3.98-5.75-7.67-11.71-9.87-18.43-.3-.9-.56-1.87-1.09-2.63-4.66-6.75-7.59-14.41-11.32-21.64-.84-1.63-1.03-3.67-1.22-5.55-.3-2.94-.88-5.52-3.4-7.58-1.23-1.01-1.81-2.95-2.41-4.57-1.11-2.99-1.89-6.07-3.93-8.68-.85-1.09-1.15-2.62-1.6-3.98-2.34-6.97-4.74-13.93-6.96-20.94-3.28-10.39-7.68-20.35-12.01-30.31-2.03-4.66-5.01-8.91-7.57-13.33-2.32-4.01-4.82-7.92-6.27-12.37-.05-.15-.08-.32-.17-.45-4.46-6.3-6.17-13.95-10.29-20.47-4.09-6.48-7.37-13.46-11.12-20.15-5.64-10.04-11.35-20.03-17.1-30-1.35-2.35-2.9-4.59-4.51-6.77-3.63-4.88-7.25-9.75-9.92-15.26-.41-.86-.86-1.79-1.54-2.4-1.91-1.71-2.79-3.78-2.95-6.32-.17-2.61-1.29-4.95-2.81-7.04-2.77-3.8-4.53-8.07-5.95-12.5-1.03-3.2-1.98-6.42-3.19-9.55-1.21-3.12-2.62-6.17-4.1-9.18-1-2.03-1.85-4.04-2.13-6.31-.15-1.23-.5-2.57-1.18-3.57-2.43-3.59-3.31-7.58-3.53-11.79-.12-2.25-.31-4.42-1.92-6.26-1.12-1.28-.97-2.98-.82-4.59.28-3.02.42-6.06.83-9.06.48-3.62,1.02-7.08,3.79-10.08,1.98-2.14,2.86-5.29,4.83-7.63.71-.84,1.39-1.74,2.22-2.45,1.56-1.35,3.31-2.5,4.82-3.9,1.25-1.16,2.64-1.91,4.29-1.82,4.31.23,8.55-1.36,12.89-.4,1.13.25,2.22-.15,3.07-1,.34-.34.62-.75.99-1.04,2.05-1.65,4.13-1.63,5.89.36,1.31,1.49,2.67,2.78,4.62,3.25,6.67,1.59,11.07,6.2,14.91,11.4,3.42,4.63,6.53,9.48,9.85,14.18,2.03,2.87,4.09,5.72,6.31,8.44,1.3,1.6,2.84,3.03,4.43,4.35,4.72,3.93,8.91,8.22,11.29,14.05.58,1.42,1.6,2.83,2.78,3.8,3.75,3.08,5.93,7.06,7.35,11.56.34,1.07.73,2.13.95,3.22.45,2.27,1.62,4.14,3.05,5.9,3.81,4.73,7.63,9.46,11.39,14.23,1.18,1.5,2.31,3.07,3.23,4.74,5.55,10.12,12,19.63,18.8,28.95,1.78,2.44,3.27,5.12,4.66,7.81,2.14,4.16,4.68,7.98,7.99,11.31,1.11,1.12,2.12,2.44,2.8,3.84,1.74,3.58,3.26,7.26,5.06,11.35,2.65,1.59,5.27,3.87,6.12,7.58,2.72,2.49,4.64,5.55,6.58,8.65.97,1.54,2.88,2.47,4.31,3.74.71.63,1.5,1.3,1.91,2.12,1.03,2.09,2.63,3.55,4.48,4.88,1.01.72,1.78,1.81,2.58,2.79,2.34,2.86,4.94,5.34,8.13,7.34,2.53,1.58,4.62,3.86,6.87,5.88.33.3.5.81.68,1.25,2.59,6.36,5.35,12.67,7.7,19.12,1.42,3.89,2.31,7.97,3.27,12.01,2.39,10.15,5.51,20.03,10.43,29.28,1.13,2.12,2.13,4.29,2.37,6.74.21,2.12,1.16,3.93,2.37,5.68,1.08,1.56,1.89,3.31,2.77,5.01.44.85.6,1.86,1.12,2.64,1.86,2.73,2.49,5.86,2.96,9.01.4,2.73,1.4,5.18,2.51,7.69,3.15,7.18,5.53,14.64,7.15,22.33.82,3.9,1.79,7.78,2.9,11.61,2.05,7.06,4.28,14.07,6.36,21.12.63,2.14,1.02,4.36,1.5,6.54.1.47.13.95.25,1.42,2.9,12.03,14.5,12.4,20.93,7.26,2.8-2.24,4.92-4.99,6.18-8.39.55-1.49,1.07-3.12,2.07-4.27,2.03-2.33,2.27-5.02,1.63-7.66-.7-2.87-.58-5.69-.55-8.56.04-4.79-.05-9.59-.11-14.38,0-.64-.07-1.28-.16-1.91q-.72-5.18,1.25-9.92c-2.08-1.94-1.87-4.66-2.13-7.36-.55-5.57-.75-11.08.1-16.64.45-3,.14-6.07-.83-9.01-1.11-3.36-1-6.57.84-9.71.44-.75.76-1.95.47-2.67-.93-2.25-.41-4.43-.03-6.61.42-2.43.68-4.77-1.17-6.97,2.09-3.04,1.38-6.44,1.53-9.73.02-.47-.07-.96-.21-1.41-2.14-6.9-1.98-13.83-.21-20.77.73-2.86.98-5.54-1.24-8.09-.97-1.11-1.27-2.92-1.59-4.46-.93-4.52-1.75-9.06-2.57-13.6-.99-5.5-1.99-11-2.9-16.52-.28-1.72-.47-3.5-.38-5.24.13-2.42.05-4.73-.7-7.08-.42-1.31-.36-2.87-.12-4.25.52-3.05.27-6.02-.11-9.06-1.17-9.36-2.13-18.74-3.23-28.1-.18-1.56-.65-3.1-1.01-4.64-.22-.93-.64-1.84-.7-2.77-.16-2.65-.92-4.96-2.81-6.93-.61-.64-.84-1.7-1.11-2.6-1.18-3.97-2.15-8.01-3.52-11.91-.79-2.24-1.24-4.23-.05-6.42.82-1.5.78-3.15-.11-4.59-1.16-1.89-1.12-3.93-1.25-6.01-.22-3.34-.59-6.68-1.07-10-.15-1.04-.77-2.05-1.34-2.98-1.52-2.47-1.55-2.57.22-4.99.28-.38.52-.78.95-1.42-1.96-3.88-1.47-8.22-1.71-12.49-.24-4.3-.65-8.59-.99-12.88-.01-.16,0-.34-.07-.47-2.73-5.09-.44-10.3-.36-15.45.02-1.1.29-2.25.09-3.3-.32-1.69.2-3.17.7-4.67.59-1.76,1.62-3.09,3.52-3.6,2.75-.73,4.65-2.31,6.13-4.89,1.16-2.02,3.34-3.41,5.6-4.34,3.1-1.29,6.17-2.56,8.81-4.78,1.79-1.5,4.08-1.8,6.38-1.29,3.2.7,6.31.87,9.37-.65.66-.33,1.61-.38,2.33-.19,3.54.95,7.16,1.73,10.08,4.21.96.82,2.12,1.41,3.17,2.14.65.46,1.42.87,1.84,1.5,2.65,3.96,5.8,7.71,7.68,12.02,2.68,6.15,5.93,12.02,8.6,18.18,3.37,7.76,7.29,15.29,11.05,22.87.8,1.61,1.37,3.21,1.45,5,.13,2.89.41,5.74,2.15,8.23.68.97.74,2.15.21,3.21-1.08,2.16-.51,4.12.81,5.83,1.44,1.88,2.02,3.9,2.11,6.22.05,1.23.25,2.69.96,3.6,1.51,1.94,1.64,4.05,1.76,6.31.08,1.56.14,3.4.97,4.59,1.85,2.65,2.29,5.6,2.57,8.61.23,2.41.69,4.69,1.42,7,.61,1.93.59,4.08.7,6.13.15,2.54-.04,5.07,1.87,7.24.6.68.43,2.08.54,3.16.11,1.09-.3,2.48.23,3.25,2.35,3.39,2.14,7.7,4.25,11.14.08.13.17.28.19.44.33,2.03.23,4.29,1.1,6.05.9,1.8,2.45,3.31,3.12,5.31.15.45.41.89.49,1.35.53,3.44,2.12,6.26,4.52,8.78.93.98,1.42,2.48,1.83,3.82.56,1.88,1.28,3.64,2.67,5.02,1.45,1.44,1.97,3.18,2.23,5.15.5,3.8,1.17,7.58,1.75,11.37.24,1.6.52,3.15,1.81,4.32,1.27,1.14,1.64,2.72,1.84,4.32.2,1.58.36,3.18.37,4.78.04,7.2.02,14.39.03,21.59,0,2.26-.14,4.46-1.74,6.32-.8.93-.85,2.11-.31,3.17,1.67,3.3,1.58,6.72,1.2,10.29-.45,4.29-.52,8.63,1.03,12.8.75,2.02.58,4.07.13,6.14-.47,2.19-.85,4.4-1.2,6.61-.25,1.62-.13,3.18,1.1,4.48,1.32,1.39,1.7,3.1,1.24,4.9-1.07,4.18-.29,8.26.56,12.34.36,1.72.9,3.42,1.11,5.15.26,2.21.63,4.51.3,6.66-.43,2.76-.52,5.33.41,7.99.35.99.2,2.22.06,3.31-.47,3.7-.41,7.35.95,10.87.86,2.22.81,4.36-.3,6.48-.29.57-.64,1.13-.78,1.74-.52,2.27-.52,4.45,1.33,6.23.46.44.88.93,1.31,1.4,1.78,1.89,2.51,4.21,1.86,6.65-1.23,4.66-.54,9.21.28,13.78.39,2.19.99,4.3,2.24,6.27.81,1.28,1.16,2.94,1.42,4.49.81,4.89,1.37,9.81,2.23,14.69.55,3.14,1.32,6.26,2.26,9.31,1.41,4.58,3.05,9.09,4.61,13.63.68,1.98,1.52,3.86,2.99,5.41,1.74,1.84,2.44,4.08,2.38,6.59-.02.96.06,1.93-.06,2.88-.5,4.1.45,7.9,2.05,11.65.61,1.43.87,3.06,1.03,4.63.36,3.52.99,6.95,2.17,10.3,2.45,6.97,3.98,14.11,4.54,21.51.43,5.64,2.67,10.53,7.65,13.74,1.57,1.01,2.5,2.33,2.92,4.17.85,3.69,2.84,6.79,5.65,9.28,2.57,2.29,4.39,5.04,5.75,8.16,1.17,2.66,2.68,5.09,4.96,6.98,1.4,1.16,2.27,2.64,2.76,4.39.85,3,2.76,5.16,5,7.38,6.81,6.74,13.71,13.49,19.67,20.96,6.07,7.61,11.94,15.41,18.06,23,.9,1.12,1.69,2.33,2.42,3.56,2.19,3.72,4.47,7.4,6.44,11.24,3.07,5.97,7.47,10.72,12.73,14.76.76.58,1.58,1.12,2.24,1.8,1.6,1.68,3.45,2.78,5.8,3.08,1.61.21,3.13.81,4.22,2.08,1.06,1.23,2.45,1.53,3.89,1.46,4.62-.22,8.84-1.23,11.36-5.76,1.08-1.95,2.5-3.71,3.74-5.57.44-.66,1.02-1.31,1.21-2.05.81-3.13,1.93-6.08,4.2-8.48.21-.22.36-.57.37-.87.15-4.42,2.84-8.05,3.72-12.29.91-4.37,3.2-8.29,5.62-12.06.34-.53,1.02-1,1.08-1.54.38-3.66,2.88-6.78,2.65-10.6-.14-2.31.5-4.27,2.28-6.02,2.09-2.06,1.83-5.01,1.89-7.71.04-1.75-.4-3.52-.28-5.26.23-3.48.24-7.05,2.6-10.01.46-.58.71-1.44.77-2.2.31-4.26,1.9-7.85,4.41-11.39,1.87-2.63,2.75-6.08,3.64-9.28.97-3.49,2.58-6.47,5.12-9.02,1.12-1.12,2.01-2.47,2.98-3.73.29-.38.46-.85.74-1.23,2.15-2.95,4.2-5.89,5.4-9.45.62-1.83,2.43-3.31,3.84-4.82,1.08-1.16,2.38-2.12,3.63-3.22v-3.43c1.09-.94,2.21-1.83,3.23-2.83,1.24-1.22,2.55-2.42,3.53-3.84,1.15-1.66,2.42-3,4.48-3.27,2.83-.37,4.79-1.68,5.39-4.61,2.72-2.89,5.19-6.15,9.03-7.61,4.93-1.88,9.88-3.56,15.35-3.31,2.66.12,5.37-.66,8.03-1.16,1.6-.3,3.14-.55,4.73-.05,5.8,1.82,11.62,3.55,17.37,5.5,1.1.37,2.16,1.44,2.8,2.46,2.95,4.75,5.78,9.58,8.56,14.43.54.94.89,2.11.91,3.18.06,3.65.45,7.37-1.71,10.7-.5.76-.66,1.79-.8,2.73-1.38,9.04-3.77,17.79-7.3,26.23-.94,2.24-1.5,4.55-1.46,6.99.06,3.19-.31,6.39.51,9.55.16.61.24,1.31.09,1.9-.94,3.67-.36,7.3.22,10.92.28,1.71.59,3.45,1.17,5.08.56,1.57.73,3.07.39,4.69-.26,1.25-.28,2.56-.62,3.78-.89,3.2-.8,6.14.82,9.24,1.06,2.03,1.25,4.59.78,7.04-.27,1.41-.32,2.85-.48,4.28-.09.79-.06,1.62-.29,2.37-2.19,7-4.41,13.99-6.66,20.97-.24.75-.55,1.54-1.04,2.14-1.92,2.35-2.38,5.13-2.83,8.01-.5,3.15-1.39,6.23-2.12,9.35-.44,1.87-1.03,3.71-1.3,5.6-.25,1.78-.64,3.48-1.65,4.95-1.27,1.85-1.48,3.89-1.07,5.97.57,2.89.32,5.68-.2,8.55-.45,2.48-.35,5.06-.48,7.42-.59.51-.92.86-1.32,1.11-3.11,1.95-3.94,3.5-2.63,6.62.97,2.3,1.25,4.56,1.33,6.97.13,3.64-.31,7.04-2.78,9.17-.26,2.76-.48,4.95-.66,7.14-.2,2.38-.51,4.71,1.41,6.77.77.82.97,2.31,1.13,3.53.16,1.25.1,2.58-.17,3.81-.43,1.98-.44,3.73.97,5.4,1.09,1.29,1.19,2.92.91,4.56-.8,4.73-1.62,9.45-2.39,14.18-.24,1.45-.62,2.8-1.63,3.92-1.47,1.6-1.99,3.6-2.39,5.66-.94,4.8-2.99,9.07-6.05,12.9-3.2,4-6.35,8.03-9.44,12.11-2.61,3.44-5.19,6.9-7.61,10.47-2.61,3.84-5.17,7.7-8.43,11.04-1.59,1.62-2.66,3.56-3.34,5.75-.62,1.98-1.29,3.98-2.25,5.8-5.25,9.92-9.1,20.45-13.62,30.68-1.62,3.65-3.21,7.33-4.7,11.03-1.31,3.26-2.44,6.59-3.72,9.86-.87,2.23-1.83,4.43-2.83,6.6-2.3,5-3.96,10.14-3.4,15.74.51,5.06,2.07,9.66,6.05,13.16.72.63,1.39,1.33,1.97,2.09,1.1,1.46,2.58,2.33,4.17,3.13,5.42,2.73,10.81,5.52,16.21,8.28,1.9.97,3.51,2.3,4.41,4.25,1.1,2.38,2.86,4.21,4.67,6.03,1.58,1.58,3.17,3.17,4.59,4.89,1.22,1.48,2.65,2.23,4.54,2.23,1.6,0,3.2.04,4.8.09,2.03.06,3.8.76,4.95,2.48,1.25,1.86,2.64,3.11,5.12,2.7,1.17-.19,2.13.62,2.79,1.58.81,1.19,1.56,2.42,2.31,3.65,1.23,2.01,2.9,3.48,5.3,3.71,2.27.22,3.72,1.43,5.11,3.13,3.52,4.31,8.24,5.96,13.66,5.21,2.46-.34,4.36.2,6.16,1.8,2.15,1.91,4.43,3.66,6.57,5.57,1.45,1.3,2.91,1.97,4.74.84,2.16-1.33,3.79-.63,5.53,1.02,1.71,1.62,4.01,2.58,4.91,5.06.42,1.16,1.65,1.55,2.8,1.47,3.34-.22,5.43,1.27,6.66,4.33,1,2.5,3.04,4.03,5.37,5.26,2.73,1.44,5.63,2.31,8.65,2.72,5.22.72,10.46,1.38,15.7,1.9,3.83.38,7.68.58,11.09-1.87,1.49-1.07,3.01-.85,4.42.27.25.2.51.39.74.61,2.16,2.22,4.29,2.09,6.83.4,2.56-1.71,3.58-1.41,5.96.62.49.41.93.88,1.39,1.32.98.96,2.09,1.38,3.49,1.07,3.69-.82,6.67.72,9.04,3.26,2.75,2.95,5.9,4.81,9.93,5.21,1.35.13,2.4.87,3.14,2,1.22,1.85,3,2.87,5.07,3.38,2.15.53,3.67,1.71,4.87,3.57.66,1.03,1.68,2.06,2.78,2.52,4.43,1.85,7.46,5.37,10.78,8.56.34.33.62.73.95,1.08,1.87,1.99,4.05,3.09,6.87,2.4.61-.15,1.25-.2,2.12-.34,1.58,2.51,3.62,4.67,5.78,6.74,2.19,2.09,4.28,4.29,6.4,6.46,1.35,1.39,2.79,2.59,4.71,3.17,1.62.49,2.78,1.48,3.07,3.31.25,1.6,1.28,2.47,2.83,2.88,1.08.28,2.11.73,3.16,1.11,2.57.93,4.46,2.37,4.64,5.42.11,1.84,1.38,2.9,3.16,3.05,2.57.21,4.32,1.72,6.25,3.22,3.4,2.64,7.02,4.99,10.62,7.37,2.13,1.41,4.4,2.62,6.6,3.92v105.55c-.69.46-1.33.93-.96,1.92h-2.88ZM734.56,303.64c.2-.2.41-.41.61-.61-.68-.67-1.37-1.34-2.05-2.01-.17.16-.33.31-.5.47.65.72,1.29,1.44,1.94,2.15Z"/></g><g id="Layer_1"><g><path class="cls-1" d="m1276.55,1280.83H0V0h1280.39v1173.37c-2.2-1.3-4.47-2.52-6.6-3.92-3.6-2.37-7.22-4.73-10.62-7.37-1.93-1.5-3.68-3-6.25-3.22-1.78-.15-3.05-1.21-3.16-3.05-.18-3.06-2.07-4.5-4.64-5.42-1.05-.38-2.08-.83-3.16-1.11-1.55-.41-2.58-1.29-2.83-2.88-.29-1.82-1.45-2.82-3.07-3.31-1.92-.58-3.35-1.79-4.71-3.17-2.12-2.17-4.21-4.37-6.4-6.46-2.16-2.06-4.2-4.22-5.78-6.74-.87.13-1.51.19-2.12.34-2.82.69-5-.41-6.87-2.4-.33-.35-.61-.75-.95-1.08-3.32-3.19-6.35-6.71-10.78-8.56-1.1-.46-2.12-1.5-2.78-2.52-1.2-1.87-2.72-3.05-4.87-3.57-2.07-.51-3.85-1.53-5.07-3.38-.74-1.12-1.79-1.86-3.14-2-4.02-.4-7.18-2.26-9.93-5.21-2.37-2.55-5.36-4.08-9.04-3.26-1.4.31-2.51-.11-3.49-1.07-.46-.45-.9-.91-1.39-1.32-2.39-2.03-3.41-2.33-5.96-.62-2.54,1.69-4.67,1.82-6.83-.4-.22-.23-.49-.41-.74-.61-1.41-1.12-2.92-1.35-4.42-.27-3.4,2.45-7.25,2.26-11.09,1.87-5.24-.53-10.48-1.19-15.7-1.9-3.02-.41-5.93-1.28-8.65-2.72-2.33-1.23-4.36-2.76-5.37-5.26-1.22-3.05-3.31-4.55-6.66-4.33-1.15.08-2.38-.31-2.8-1.47-.89-2.48-3.2-3.44-4.91-5.06-1.74-1.65-3.37-2.35-5.53-1.02-1.83,1.13-3.28.46-4.74-.84-2.14-1.91-4.42-3.67-6.57-5.57-1.8-1.59-3.7-2.14-6.16-1.8-5.43.75-10.14-.9-13.66-5.21-1.39-1.7-2.84-2.91-5.11-3.13-2.4-.23-4.07-1.7-5.3-3.71-.75-1.23-1.49-2.46-2.31-3.65-.66-.96-1.63-1.77-2.79-1.58-2.48.41-3.88-.84-5.12-2.7-1.15-1.72-2.92-2.41-4.95-2.48-1.6-.05-3.2-.09-4.8-.09-1.89,0-3.32-.75-4.54-2.23-1.42-1.72-3.01-3.31-4.59-4.89-1.81-1.82-3.57-3.64-4.67-6.03-.9-1.95-2.51-3.28-4.41-4.25-5.4-2.76-10.79-5.56-16.21-8.28-1.59-.8-3.07-1.67-4.17-3.13-.57-.76-1.25-1.46-1.97-2.09-3.98-3.49-5.54-8.1-6.05-13.16-.56-5.6,1.1-10.74,3.4-15.74,1-2.18,1.95-4.38,2.83-6.6,1.28-3.27,2.41-6.6,3.72-9.86,1.5-3.71,3.08-7.38,4.7-11.03,4.53-10.23,8.38-20.76,13.62-30.68.96-1.82,1.63-3.82,2.25-5.8.69-2.19,1.76-4.12,3.34-5.75,3.26-3.34,5.82-7.2,8.43-11.04,2.43-3.56,5.01-7.03,7.61-10.47,3.09-4.08,6.24-8.11,9.44-12.11,3.06-3.82,5.12-8.1,6.05-12.9.4-2.07.93-4.06,2.39-5.66,1.02-1.11,1.4-2.47,1.63-3.92.77-4.73,1.58-9.46,2.39-14.18.28-1.64.18-3.27-.91-4.56-1.4-1.67-1.4-3.42-.97-5.4.27-1.23.32-2.56.17-3.81-.15-1.22-.36-2.71-1.13-3.53-1.92-2.06-1.61-4.39-1.41-6.77.18-2.19.41-4.38.66-7.14,2.47-2.13,2.91-5.52,2.78-9.17-.09-2.41-.36-4.67-1.33-6.97-1.31-3.12-.48-4.67,2.63-6.62.4-.25.73-.61,1.32-1.11.13-2.36.02-4.94.48-7.42.53-2.88.78-5.66.2-8.55-.41-2.08-.19-4.12,1.07-5.97,1.01-1.47,1.4-3.17,1.65-4.95.26-1.89.86-3.73,1.3-5.6.73-3.11,1.63-6.2,2.12-9.35.45-2.88.92-5.66,2.83-8.01.49-.6.79-1.39,1.04-2.14,2.24-6.98,4.47-13.97,6.66-20.97.23-.75.2-1.58.29-2.37.15-1.43.21-2.88.48-4.28.47-2.45.28-5-.78-7.04-1.62-3.11-1.71-6.04-.82-9.24.34-1.22.36-2.53.62-3.78.34-1.62.17-3.11-.39-4.69-.58-1.63-.89-3.37-1.17-5.08-.58-3.62-1.17-7.25-.22-10.92.15-.59.07-1.3-.09-1.9-.82-3.15-.44-6.36-.51-9.55-.05-2.44.52-4.75,1.46-6.99,3.53-8.44,5.92-17.19,7.3-26.23.14-.93.31-1.96.8-2.73,2.17-3.34,1.78-7.05,1.71-10.7-.02-1.07-.37-2.25-.91-3.18-2.78-4.85-5.61-9.68-8.56-14.43-.64-1.02-1.7-2.09-2.8-2.46-5.75-1.95-11.58-3.68-17.37-5.5-1.59-.5-3.14-.25-4.73.05-2.66.51-5.38,1.28-8.03,1.16-5.47-.25-10.43,1.44-15.35,3.31-3.84,1.46-6.31,4.72-9.03,7.61-.6,2.93-2.56,4.24-5.39,4.61-2.06.27-3.33,1.61-4.48,3.27-.98,1.42-2.29,2.62-3.53,3.84-1.01,1-2.14,1.88-3.23,2.83v3.43c-1.26,1.1-2.55,2.06-3.63,3.22-1.41,1.51-3.22,2.98-3.84,4.82-1.2,3.57-3.25,6.51-5.4,9.45-.28.39-.45.86-.74,1.23-.97,1.26-1.87,2.61-2.98,3.73-2.55,2.56-4.15,5.53-5.12,9.02-.89,3.2-1.77,6.65-3.64,9.28-2.51,3.53-4.1,7.13-4.41,11.39-.06.75-.31,1.62-.77,2.2-2.37,2.97-2.37,6.54-2.6,10.01-.12,1.74.32,3.51.28,5.26-.06,2.7.2,5.64-1.89,7.71-1.78,1.75-2.42,3.71-2.28,6.02.23,3.82-2.27,6.93-2.65,10.6-.06.55-.73,1.01-1.08,1.54-2.42,3.77-4.71,7.69-5.62,12.06-.89,4.23-3.57,7.87-3.72,12.29-.01.3-.17.65-.37.87-2.27,2.4-3.39,5.35-4.2,8.48-.19.74-.77,1.39-1.21,2.05-1.25,1.86-2.66,3.62-3.74,5.57-2.52,4.52-6.74,5.53-11.36,5.76-1.44.07-2.84-.24-3.89-1.46-1.09-1.27-2.61-1.87-4.22-2.08-2.35-.3-4.2-1.4-5.8-3.08-.65-.69-1.48-1.22-2.24-1.8-5.26-4.05-9.66-8.79-12.73-14.76-1.97-3.84-4.25-7.51-6.44-11.24-.73-1.24-1.52-2.45-2.42-3.56-6.12-7.59-11.98-15.39-18.06-23-5.96-7.47-12.86-14.22-19.67-20.96-2.24-2.22-4.14-4.37-5-7.38-.5-1.75-1.36-3.23-2.76-4.39-2.27-1.88-3.79-4.31-4.96-6.98-1.36-3.12-3.18-5.87-5.75-8.16-2.81-2.5-4.8-5.59-5.65-9.28-.42-1.84-1.35-3.16-2.92-4.17-4.98-3.21-7.22-8.1-7.65-13.74-.57-7.4-2.09-14.54-4.54-21.51-1.17-3.34-1.8-6.78-2.17-10.3-.16-1.57-.42-3.2-1.03-4.63-1.61-3.75-2.55-7.55-2.05-11.65.12-.95.04-1.92.06-2.88.06-2.51-.64-4.75-2.38-6.59-1.48-1.55-2.31-3.44-2.99-5.41-1.56-4.54-3.2-9.05-4.61-13.63-.94-3.05-1.7-6.17-2.26-9.31-.86-4.88-1.42-9.8-2.23-14.69-.25-1.54-.6-3.2-1.42-4.49-1.25-1.96-1.84-4.08-2.24-6.27-.82-4.57-1.51-9.13-.28-13.78.65-2.44-.08-4.76-1.86-6.65-.44-.47-.85-.96-1.31-1.4-1.85-1.78-1.85-3.97-1.33-6.23.14-.61.49-1.18.78-1.74,1.1-2.12,1.15-4.26.3-6.48-1.36-3.53-1.42-7.17-.95-10.87.14-1.09.29-2.32-.06-3.31-.94-2.66-.84-5.24-.41-7.99.34-2.16-.03-4.45-.3-6.66-.21-1.74-.75-3.43-1.11-5.15-.86-4.08-1.63-8.15-.56-12.34.46-1.8.08-3.51-1.24-4.9-1.24-1.3-1.36-2.85-1.1-4.48.35-2.21.72-4.42,1.2-6.61.45-2.07.61-4.12-.13-6.14-1.54-4.18-1.48-8.52-1.03-12.8.37-3.58.47-6.99-1.2-10.29-.54-1.06-.49-2.24.31-3.17,1.6-1.85,1.74-4.05,1.74-6.32,0-7.2.01-14.39-.03-21.59,0-1.59-.17-3.2-.37-4.78-.21-1.59-.57-3.17-1.84-4.32-1.29-1.16-1.57-2.72-1.81-4.32-.58-3.79-1.25-7.57-1.75-11.37-.26-1.97-.78-3.7-2.23-5.15-1.39-1.38-2.1-3.15-2.67-5.02-.4-1.35-.9-2.85-1.83-3.82-2.4-2.52-3.99-5.35-4.52-8.78-.07-.46-.33-.9-.49-1.35-.68-2-2.23-3.51-3.12-5.31-.88-1.76-.77-4.01-1.1-6.05-.03-.15-.11-.3-.19-.44-2.11-3.44-1.9-7.75-4.25-11.14-.53-.77-.13-2.16-.23-3.25-.1-1.08.06-2.47-.54-3.16-1.91-2.17-1.72-4.7-1.87-7.24-.12-2.06-.1-4.21-.7-6.13-.73-2.31-1.19-4.6-1.42-7-.29-3-.72-5.95-2.57-8.61-.83-1.19-.89-3.03-.97-4.59-.12-2.26-.25-4.37-1.76-6.31-.71-.91-.91-2.38-.96-3.6-.1-2.32-.67-4.34-2.11-6.22-1.31-1.71-1.88-3.67-.81-5.83.53-1.06.46-2.24-.21-3.21-1.74-2.5-2.01-5.35-2.15-8.23-.08-1.8-.65-3.39-1.45-5-3.77-7.59-7.69-15.11-11.05-22.87-2.67-6.16-5.92-12.03-8.6-18.18-1.88-4.31-5.03-8.06-7.68-12.02-.42-.63-1.19-1.04-1.84-1.5-1.04-.73-2.2-1.32-3.17-2.14-2.92-2.49-6.54-3.26-10.08-4.21-.72-.19-1.68-.14-2.33.19-3.06,1.52-6.17,1.36-9.37.65-2.3-.51-4.6-.21-6.38,1.29-2.64,2.22-5.7,3.49-8.81,4.78-2.26.94-4.44,2.32-5.6,4.34-1.48,2.57-3.38,4.16-6.13,4.89-1.91.51-2.94,1.84-3.52,3.6-.5,1.51-1.02,2.99-.7,4.67.2,1.06-.07,2.2-.09,3.3-.09,5.15-2.38,10.36.36,15.45.07.13.05.31.07.47.34,4.29.76,8.58.99,12.88.23,4.27-.25,8.61,1.71,12.49-.42.64-.67,1.04-.95,1.42-1.77,2.42-1.74,2.52-.22,4.99.57.93,1.19,1.94,1.34,2.98.48,3.32.86,6.66,1.07,10,.14,2.08.1,4.12,1.25,6.01.89,1.45.93,3.09.11,4.59-1.2,2.19-.74,4.18.05,6.42,1.37,3.9,2.34,7.94,3.52,11.91.27.91.5,1.96,1.11,2.6,1.89,1.97,2.65,4.29,2.81,6.93.06.93.48,1.84.7,2.77.36,1.54.82,3.08,1.01,4.64,1.1,9.36,2.07,18.74,3.23,28.1.38,3.04.63,6.01.11,9.06-.24,1.38-.29,2.95.12,4.25.75,2.35.83,4.66.7,7.08-.09,1.74.1,3.51.38,5.24.91,5.51,1.9,11.02,2.9,16.52.82,4.54,1.63,9.08,2.57,13.6.32,1.55.62,3.35,1.59,4.46,2.22,2.55,1.97,5.22,1.24,8.09-1.77,6.94-1.93,13.86.21,20.77.14.45.23.94.21,1.41-.15,3.29.55,6.69-1.53,9.73,1.85,2.2,1.59,4.54,1.17,6.97-.38,2.17-.89,4.35.03,6.61.3.72-.03,1.92-.47,2.67-1.83,3.14-1.95,6.34-.84,9.71.97,2.94,1.29,6.01.83,9.01-.85,5.57-.65,11.08-.1,16.64.26,2.7.05,5.42,2.13,7.36q-1.97,4.74-1.25,9.92c.09.63.15,1.27.16,1.91.05,4.79.15,9.59.11,14.38-.03,2.87-.15,5.69.55,8.56.64,2.65.4,5.33-1.63,7.66-1,1.16-1.52,2.79-2.07,4.27-1.26,3.41-3.38,6.15-6.18,8.39-6.43,5.14-18.03,4.77-20.93-7.26-.11-.47-.14-.95-.25-1.42-.49-2.18-.87-4.4-1.5-6.54-2.08-7.05-4.32-14.06-6.36-21.12-1.11-3.83-2.07-7.71-2.9-11.61-1.62-7.69-4-15.15-7.15-22.33-1.1-2.51-2.11-4.96-2.51-7.69-.46-3.16-1.1-6.28-2.96-9.01-.53-.78-.69-1.79-1.12-2.64-.87-1.7-1.69-3.44-2.77-5.01-1.21-1.75-2.16-3.57-2.37-5.68-.24-2.45-1.24-4.62-2.37-6.74-4.92-9.25-8.04-19.13-10.43-29.28-.95-4.04-1.85-8.13-3.27-12.01-2.35-6.45-5.1-12.75-7.7-19.12-.18-.44-.34-.95-.68-1.25-2.25-2.01-4.34-4.29-6.87-5.88-3.19-2-5.79-4.48-8.13-7.34-.8-.98-1.57-2.07-2.58-2.79-1.86-1.33-3.45-2.79-4.48-4.88-.41-.82-1.19-1.49-1.91-2.12-1.43-1.27-3.34-2.2-4.31-3.74-1.94-3.1-3.86-6.16-6.58-8.65-.85-3.71-3.47-5.99-6.12-7.58-1.81-4.09-3.33-7.77-5.06-11.35-.68-1.41-1.7-2.73-2.8-3.84-3.3-3.33-5.85-7.16-7.99-11.31-1.39-2.69-2.88-5.37-4.66-7.81-6.79-9.31-13.25-18.83-18.8-28.95-.92-1.67-2.05-3.24-3.23-4.74-3.76-4.78-7.57-9.5-11.39-14.23-1.42-1.76-2.6-3.63-3.05-5.9-.22-1.09-.62-2.15-.95-3.22-1.42-4.51-3.6-8.49-7.35-11.56-1.18-.97-2.2-2.38-2.78-3.8-2.38-5.83-6.57-10.12-11.29-14.05-1.59-1.32-3.13-2.75-4.43-4.35-2.22-2.72-4.29-5.57-6.31-8.44-3.32-4.7-6.44-9.55-9.85-14.18-3.84-5.21-8.24-9.81-14.91-11.4-1.94-.46-3.3-1.76-4.62-3.25-1.76-1.99-3.84-2.02-5.89-.36-.37.3-.65.71-.99,1.04-.85.85-1.94,1.26-3.07,1-4.34-.97-8.58.63-12.89.4-1.65-.09-3.04.66-4.29,1.82-1.52,1.4-3.26,2.55-4.82,3.9-.83.71-1.51,1.61-2.22,2.45-1.97,2.34-2.84,5.49-4.83,7.63-2.77,2.99-3.3,6.46-3.79,10.08-.4,3-.54,6.04-.83,9.06-.15,1.62-.3,3.31.82,4.59,1.61,1.84,1.8,4.01,1.92,6.26.22,4.21,1.11,8.2,3.53,11.79.68,1.01,1.03,2.34,1.18,3.57.28,2.27,1.14,4.29,2.13,6.31,1.48,3.01,2.89,6.06,4.1,9.18,1.21,3.13,2.16,6.35,3.19,9.55,1.43,4.44,3.19,8.7,5.95,12.5,1.52,2.1,2.64,4.43,2.81,7.04.16,2.54,1.04,4.6,2.95,6.32.68.61,1.13,1.55,1.54,2.4,2.66,5.51,6.29,10.38,9.92,15.26,1.62,2.18,3.16,4.43,4.51,6.77,5.75,9.97,11.47,19.96,17.1,30,3.76,6.69,7.04,13.67,11.12,20.15,4.11,6.52,5.83,14.17,10.29,20.47.09.13.12.29.17.45,1.45,4.45,3.95,8.36,6.27,12.37,2.56,4.43,5.54,8.67,7.57,13.33,4.34,9.96,8.74,19.91,12.01,30.31,2.21,7.01,4.61,13.97,6.96,20.94.46,1.36.76,2.89,1.6,3.98,2.04,2.61,2.82,5.69,3.93,8.68.6,1.62,1.18,3.56,2.41,4.57,2.52,2.06,3.1,4.64,3.4,7.58.19,1.88.38,3.92,1.22,5.55,3.72,7.24,6.66,14.89,11.32,21.64.53.77.79,1.73,1.09,2.63,2.21,6.72,5.89,12.68,9.87,18.43,1.3,1.87,2.47,3.69,3.16,5.83.75,2.31,1.73,4.5,3.59,6.13,1.55,1.36,2.12,3.04,2.35,5.05.92,7.94,2.06,15.84,4.62,23.47,1.03,3.05,1.28,6.17.62,9.45-.43,2.13-.05,4.43.05,6.66.05,1.11.49,2.24.37,3.31-.12,1.04-.45,2.36-1.18,2.97-2.45,2.06-3.63,4.77-4.77,7.62-1.48,3.71-3.1,7.37-5.6,10.56-2.94,3.75-6.85,4.97-11.46,4.67-4.28-.28-7.62-1.74-9.68-5.85-1.72-3.43-4.06-6.46-7.18-8.88-2.28-1.77-4.12-3.98-4.95-6.9-.25-.89-.85-1.73-1.46-2.44-1.96-2.31-4.01-4.54-5.99-6.84-1.87-2.17-3.82-4.3-5.5-6.61-3.18-4.4-6.12-8.98-9.31-13.39-1.78-2.46-3.83-4.68-5.1-7.51-.49-1.1-1.56-1.99-2.5-2.83-2.17-1.94-4.17-4.03-5.47-6.62-1.33-2.63-3.08-4.85-5.35-6.68-2.06-1.66-3.35-3.83-4.24-6.28-.43-1.2-.88-2.41-1.23-3.64-.42-1.48-1.26-2.62-2.64-3.23-2.7-1.2-4.18-3.35-4.99-6.08-.18-.61-.55-1.15-.8-1.74-.87-2.05-2.17-3.49-4.63-3.51-1.61,0-2.77-.86-3.14-2.45-.37-1.61-1.39-2.43-2.84-2.94-.9-.32-1.75-.8-2.67-1.07-7.26-2.19-13.79-5.95-20.37-9.57-6.3-3.46-12.38-7.33-18.62-10.92-1.7-.98-3.28-1.97-4.17-3.79-.73-1.49-1.94-2.53-3.37-3.31-3.25-1.79-5.95-4.26-8.75-6.66-3.83-3.3-7.55-6.87-12.61-8.38-.73-.22-1.64-.62-1.99-1.21-2.18-3.67-5.64-5.96-8.71-8.73-1.9-1.72-3.74-3.47-5.9-4.81-3.69-2.31-6.91-5.14-9.93-8.26-4.34-4.48-8.77-8.87-13.19-13.27-1.13-1.12-2.31-2.22-3.59-3.18-5.63-4.21-11.32-8.35-16.96-12.53-.63-.47-1.24-1.02-1.7-1.64-2.13-2.85-4.72-5.18-7.83-6.91-1.77-.98-3-2.36-3.57-4.3-.56-1.9-1.56-3.46-3.26-4.58-1.38-.91-2.23-2.28-2.75-3.83-.63-1.86-1.89-2.91-3.83-3.14-1.14-.14-2.3-.39-2.89-1.45-2.37-4.22-6.49-4.91-10.7-5.23-3.34-.25-6.74-.44-10.07-.14-4.48.41-8.8,1.58-11.96,5.23-1.47,1.7-3.13,3.15-5.15,4.24-3.04,1.62-5.31,4.09-6.92,7.12-.99,1.85-2.05,3.56-3.74,4.91-1.25,1-2.18,2.34-1.83,4.29.82.61,1.69,1.26,2.57,1.92-.78,4.85-.52,9.64-.32,14.4.13,3.02.62,6.17,2.75,8.52,1.34,1.47,2.13,3.15,2.99,4.85,1.94,3.85,3.84,7.69,7.21,10.62,1.4,1.22,2.25,3.08,3.4,4.61,1.73,2.29,3.39,4.64,5.3,6.77,1.3,1.45,2.36,2.97,3.3,4.66,1.86,3.35,3.91,6.59,5.92,9.86.33.53.84.95,1.3,1.39,4.27,4.09,8.55,8.16,12.79,12.27.91.89,1.66,1.94,2.51,2.9,2.01,2.27,3.99,4.56,6.07,6.77,2.41,2.56,4.93,5.02,7.37,7.55.77.8,1.35,1.8,2.17,2.54,3.8,3.44,7.19,7.18,9.16,11.34,2.22,1.57,4.31,2.59,5.75,4.18,1.83,2.03,3.58,4.02,6.12,5.02.16.82.41,1.44.4,2.06-.08,3.33,1.78,4.99,4.81,5.56,2.33.44,4.04,1.81,5.67,3.39,2.52,2.45,5.07,4.88,7.65,7.27,7.03,6.52,14.11,13,21.12,19.54,1.15,1.08,2.35,2.29,3.01,3.68,1.37,2.86,3.52,4.88,5.97,6.72.75.56,1.52,1.24,1.98,2.03,1.52,2.61,2.87,5.31,4.34,7.95.62,1.11,1.15,2.42,2.09,3.17,3.22,2.55,5.42,5.82,7.31,9.37.3.56.76,1.02,1.15,1.53,1.84,2.41,3.75,4.77,5.5,7.24,3.15,4.43,6.11,8.99,9.35,13.35,2.18,2.94,4.77,5.58,7.05,8.45,8.04,10.15,16.07,20.31,24.02,30.53,4.07,5.22,7.3,10.9,8.39,17.56.31,1.89.24,3.85.63,5.71,1.1,5.27.96,10.39-.83,15.54-.76,2.18-1.49,4.21-3.29,5.68-2.07,1.69-3.4,3.76-3.82,6.43-.14.92-.48,1.9-1.02,2.64-2.44,3.36-4.83,6.77-7.52,9.92-2.89,3.38-6.07,6.53-9.2,9.7-.65.65-1.61,1.03-2.47,1.44-2.46,1.16-4.79,2.5-6.96,4.19-3.02,2.36-6.6,3.23-10.4,2.74-2.57-.34-5.06-.41-7.62.08-1.2.23-2.55.12-3.75-.17-9.94-2.4-19.87-4.85-29.79-7.35-1.69-.43-3.39-1.02-4.9-1.86-1.86-1.04-3.75-1.7-5.88-1.85-1.09-.08-2.24-.3-3.22-.76-2.16-1.01-4.28-2.13-6.31-3.38-1.69-1.04-3.41-1.74-5.4-1.67-1.86.06-3.39-.59-4.76-1.87-1.8-1.69-4.02-2.59-6.47-2.85-1.35-.14-2.46-.61-3.2-1.81-.86-1.4-2.25-1.75-3.75-1.66-1.96.12-3.73.06-5.36-1.41-.72-.65-2.06-.77-3.14-.84-1.26-.07-2.53.18-3.77.3-.46-.32-.95-.51-1.21-.88-1.26-1.8-3.04-2.14-5.07-2.07-2.24.08-4.48.15-6.72.04-2.33-.12-4.4.25-6.24,1.84-.8.69-1.94,1.25-2.97,1.35-2.7.25-5.45.5-8.13.21-2.6-.28-5.03-.38-7.53.57-.96.37-2.33.42-3.24.01-3.35-1.5-6.84-1.34-10.36-1.43-2.05-.05-4.15-.35-6.11-.92-2.29-.67-4.43-1.81-6.68-2.65-2.24-.83-4.49-1.64-6.79-2.26-2.04-.56-3.92-1.25-5.53-2.69-.92-.82-2.09-1.46-3.24-1.92-1.77-.71-3.65-1.15-5.46-1.79-1.86-.66-3.67-.77-5.64-.41-2.51.45-5.07.66-7.62.74-6.6.21-12.88-2.31-19.48-2.34-1.49,0-2.96-1.07-4.48-1.51-.91-.26-1.89-.37-2.84-.36-2.46.02-4.76-.52-6.92-1.67-1.77-.95-3.6-1-5.58-.7-2.2.33-4.45.29-6.68.41-2.04.11-3.76-.51-5.13-2.08-.4-.45-.98-.74-1.5-1.12-.72.32-1.32.52-1.86.84-3.33,1.95-6.61,2.26-9.84-.2-1.33-1.01-2.73-.76-4.09-.14-5.14,2.34-9.02,6.13-11.4,11.15-1.45,3.07-2.83,6.02-5.28,7.8-.38,3.6-.65,6.75-1.08,9.89-.18,1.32-.31,2.63.46,3.71,1.59,2.22,1.79,4.73,1.85,7.31.03,1.48.24,3.01,1.55,3.86,2.8,1.82,4.35,4.63,6.15,7.26.93,1.35,2.02,2.39,3.7,2.85,2.51.69,4.69,2.06,6.52,3.91,1.63,1.65,3.63,2.56,5.79,3.26,3.2,1.03,6.41,2.01,9.55,3.22,1.45.56,3.17,1.26,3.98,2.45,1.77,2.61,4.14,3.78,7.05,4.49,2.32.56,4.54,1.55,6.82,2.29,1.82.59,3.64,1.33,5.51,1.6,3.53.52,6.82,1.7,10.05,3.1,3.54,1.53,7.18,2.71,11.01,3.22,2.76.37,5.31,1.08,7.35,3.13.96.96,2.15,1.21,3.54,1.01,4.25-.62,7.83.86,10.98,3.64,2.94,2.61,6.35,4.2,10.26,4.84,6.8,1.11,13.43,2.91,20.04,4.83,3.37.98,6.79,1.91,10.25,2.47,5.67.93,11.4,1.52,17.1,2.29,2.22.3,4.42.64,6.43,1.79.8.46,1.84.85,2.72.75,4.24-.45,8.18,1.36,12.33,1.51,2.54.09,4.66,1.15,6.02,3.37,1.31,2.13,3.13,2.96,5.62,2.85,3.59-.15,6.96.74,10.07,2.62.8.48,1.73.82,2.65,1.02,3.43.75,6.87,1.43,10.32,2.1,4.63.9,8.82,2.86,12.73,5.41,3.94,2.57,8.17,4.1,13.14,4.39,1.5,1.87,3.41,3.5,6.11,3.91.6.09,1.23.44,1.7.83,1.4,1.17,3,1.68,4.77,2.05,3.81.78,6.67,2.98,8.54,6.41.84,1.54,1.62,3.12,2.39,4.7.85,1.74,1.75,3.35,3.66,4.26.95.45,1.76,1.37,2.41,2.24,3.42,4.62,6.78,9.29,10.15,13.95,1.04,1.44,2.14,2.79,3.8,3.57,1.52.71,2.41,1.98,3.26,3.38,2.39,3.97,4.9,7.86,7.37,11.78,1.87,2.97,4.05,5.77,4.99,9.24.39,1.45,1.19,2.71,2.51,3.39,2.31,1.19,3.29,3.31,4.51,5.4,1.19,2.03,3.73,3.05,4.47,5.51.09.3.3.57.41.86,1.3,3.43,2.62,6.85,5.27,9.55.43.44.69,1.09.9,1.69,1.29,3.82,4.13,6.43,7.14,8.79,2,1.57,3.54,3.13,3.77,5.78.08.91.33,2.21.96,2.61,2.65,1.7,3.57,4.33,4.51,7.06.24.71.99,1.24,1.47,1.87,2.37,3.14,3.73,7.01,6.92,9.56.23.18.33.55.45.84,1.55,3.66,3.04,7.35,4.68,10.97.43.96,1.15,2.1,2.03,2.49,3.41,1.5,5.05,4.37,6.14,7.6,1.09,3.25,2.7,6.08,5.02,8.61,1.28,1.39,2.28,3.11,3.08,4.84,1.5,3.21,3.56,6.03,5.57,8.91,6.03,8.65,11.9,17.42,17.8,26.16.44.66.82,1.39,1.07,2.14,1.3,3.91,3.77,6.9,6.89,9.52,1.57,1.31,2.94,2.93,4.15,4.59,2.07,2.84,3.88,5.87,5.92,8.74,1.75,2.46,3.47,4.95,6.39,6.33,1.06.5,2.11,1.63,2.56,2.72,2,4.88,5.6,8.5,9.07,12.26,4.01,4.34,7.96,8.75,11.93,13.13,5.91,6.51,11.85,12.99,17.73,19.52,2.24,2.49,4.54,4.97,6.46,7.7,5.52,7.85,10.84,15.83,16.27,23.74,1.38,2.01,2.43,4.07,2.63,6.58.2,2.46,1.32,4.54,3.16,6.28,1.03.97,1.78,2.23,2.68,3.34.9,1.11,1.69,2.37,2.78,3.26,4.25,3.46,7.65,7.69,11.24,11.77.94,1.07,1.95,2.24,3.19,2.85,2.98,1.47,5.15,3.77,7.06,6.34.99,1.34,2.17,2.26,3.63,3,2.69,1.38,5.52,2.62,7.89,4.44,2.38,1.83,5.06,2.76,7.78,3.53,2.07.58,3.87,1.29,5.43,2.78,1.39,1.33,2.9,2.41,5.13,1.94.99-.21,2.16.31,3.21.63,1.67.51,3.29,1.18,4.96,1.71,3.06.96,6.02,2.02,8.73,3.84,3.45,2.31,7.12,4.3,10.6,6.57,2.13,1.39,4.32,2.82,6.07,4.64,1.68,1.75,3.43,3.33,5.46,4.62,2.6,1.65,4.87,3.69,6.59,6.22,1.24,1.82,2.72,3.16,4.82,3.68,1.7.43,2.76,1.45,3.59,2.9.64,1.1,1.34,2.2,2.18,3.15,3.16,3.55,6.35,7.08,11.06,8.62.18.28.47.54.5.83.42,3.73,2.51,6.36,5.17,8.86,4.08,3.82,8.1,7.76,11.78,11.95,6.22,7.09,12.32,14.29,19.15,20.81,3.26,3.11,5.72,6.82,8.08,10.66,3.84,6.27,8.02,12.32,12.04,18.48,1.14,1.75,2.68,2.65,4.79,2.64,2.56,0,5.12.14,7.67.14,23.2,0,46.39,0,69.59,0,124.77,0,249.55,0,374.32-.01,12.8,0,25.59-.01,38.39.01,1.89,0,3.88-.35,5.49,1.1Z"/><path class="cls-2" d="m1279.43,1280.83c-.37-.99.27-1.46.96-1.92,0,.48-.03.96,0,1.44.06.96-.67.27-.97.48Z"/><path class="cls-4" d="m734.56,303.64c-.65-.72-1.29-1.44-1.94-2.15.17-.16.33-.31.5-.47.68.67,1.37,1.34,2.05,2.01-.2.2-.41.41-.61.61Z"/></g></g></svg>